<svg
    xmlns="http://www.w3.org/2000/svg"
    width="1323"
    height="737"
    viewBox="0 0 1323 737"
    fill="none"
>
    <g clip-path="url(#clip0_118_255)">
        <path
            d="M67.1113 220.629C-55.4888 364.109 9.50553 631.527 105.846 737H1231.13C1251.32 703.508 1323 589.537 1323 448.072C1323 298.089 1296.18 104.94 1071.23 35.6751C902.383 -16.3119 680.406 158.145 560.727 158.145C441.047 158.145 210.627 52.6711 67.1113 220.629Z"
            fill="#F4F8FF"
        />
        <path
            d="M240.5 199C246.851 199 252 193.851 252 187.5C252 181.149 246.851 176 240.5 176C234.149 176 229 181.149 229 187.5C229 193.851 234.149 199 240.5 199Z"
            stroke="#FFE7F2"
            stroke-width="2"
        />
        <path
            d="M309 484C316.732 484 323 477.732 323 470C323 462.268 316.732 456 309 456C301.268 456 295 462.268 295 470C295 477.732 301.268 484 309 484Z"
            stroke="#FFE7F2"
            stroke-width="2"
        />
        <path
            d="M765.5 175C769.09 175 772 172.09 772 168.5C772 164.91 769.09 162 765.5 162C761.91 162 759 164.91 759 168.5C759 172.09 761.91 175 765.5 175Z"
            stroke="#FFE7F2"
            stroke-width="2"
        />
        <path
            d="M978.5 435C982.09 435 985 432.09 985 428.5C985 424.91 982.09 422 978.5 422C974.91 422 972 424.91 972 428.5C972 432.09 974.91 435 978.5 435Z"
            stroke="#FFE7F2"
            stroke-width="2"
        />
        <path d="M1077 501H993V568H1077V501Z" fill="#EAF2FF" />
        <path d="M1087 490H983V579H1087V490Z" stroke="#EAF2FF" stroke-width="2" />
        <path d="M515 285H431V352H515V285Z" fill="#EAF2FF" />
        <path d="M525 274H421V363H525V274Z" stroke="#EAF2FF" stroke-width="2" />
        <path
            d="M406 316.617C406 327.451 414.783 336.234 425.617 336.234C436.451 336.234 445.234 327.451 445.234 316.617C445.234 305.783 436.451 297 425.617 297C414.783 297 406 305.783 406 316.617Z"
            fill="#FDB11F"
        />
        <path
            d="M409.923 316.617C409.923 325.284 416.95 332.311 425.617 332.311C434.284 332.311 441.31 325.284 441.31 316.617C441.31 307.95 434.284 300.924 425.617 300.924C416.95 300.924 409.923 307.95 409.923 316.617Z"
            fill="#FFD43B"
        />
        <path
            d="M429.252 312.467C428.798 312.731 428.218 312.631 427.881 312.23C427.744 312.06 427.58 311.914 427.394 311.799C426.479 311.311 425.36 311.4 424.533 312.025C424.127 312.348 423.895 312.84 423.906 313.356C423.906 314.095 424.459 314.688 425.564 315.137L427.083 315.76C428.318 316.256 429.224 316.862 429.8 317.576C430.384 318.327 430.688 319.257 430.659 320.206C430.699 321.498 430.191 322.749 429.258 323.652C428.327 324.563 427.063 325.058 425.755 325.023C424.433 325.023 423.342 324.635 422.481 323.857C421.893 323.308 421.453 322.621 421.202 321.859C421.088 321.543 421.116 321.195 421.278 320.902C421.441 320.609 421.722 320.398 422.05 320.324C422.664 320.197 423.27 320.568 423.432 321.168C423.5 321.433 423.616 321.684 423.774 321.908C424.248 322.561 424.939 322.887 425.845 322.887C426.515 322.906 427.162 322.646 427.63 322.172C428.106 321.69 428.363 321.035 428.341 320.361C428.344 320.087 428.302 319.814 428.217 319.553C428.134 319.305 428.004 319.076 427.833 318.877C427.638 318.652 427.41 318.458 427.158 318.298C426.845 318.099 426.515 317.927 426.171 317.784L424.709 317.176C422.619 316.301 421.574 315.022 421.574 313.338C421.556 312.24 422.038 311.194 422.887 310.488C423.789 309.708 424.955 309.295 426.15 309.333C427.438 309.308 428.669 309.855 429.507 310.824C429.723 311.064 429.819 311.387 429.77 311.705C429.721 312.023 429.531 312.302 429.252 312.467Z"
            fill="#E83430"
        />
        <path
            d="M425.616 310.835C424.997 310.835 424.496 310.3 424.496 309.641V308.284C424.496 307.624 424.998 307.089 425.617 307.089C426.236 307.089 426.738 307.624 426.738 308.284V309.641C426.738 309.958 426.619 310.262 426.409 310.486C426.199 310.71 425.913 310.835 425.616 310.835ZM425.616 327.266C424.997 327.266 424.496 326.732 424.496 326.073V324.715C424.496 324.056 424.998 323.521 425.617 323.521C426.236 323.521 426.738 324.056 426.738 324.715V326.073C426.738 326.39 426.619 326.693 426.409 326.918C426.199 327.141 425.913 327.267 425.616 327.266Z"
            fill="#E83430"
        />
        <path
            d="M994.399 716H329.601C326.508 716 324 717.503 324 719.358V733.642C324 735.497 326.508 737 329.601 737H994.399C997.492 737 1000 735.497 1000 733.642V719.358C1000 717.503 997.492 716 994.399 716Z"
            fill="#D5E0F3"
        />
        <path
            d="M346.049 231.099C367.616 231.099 385.099 213.616 385.099 192.049C385.099 170.483 367.616 153 346.049 153C324.483 153 307 170.483 307 192.049C307 213.616 324.483 231.099 346.049 231.099Z"
            fill="#0F5299"
        />
        <path
            d="M346.05 228.309C366.076 228.309 382.31 212.075 382.31 192.049C382.31 172.023 366.076 155.789 346.05 155.789C326.024 155.789 309.79 172.023 309.79 192.049C309.79 212.075 326.024 228.309 346.05 228.309Z"
            fill="#0195D6"
        />
        <path
            d="M346.05 227.002C365.354 227.002 381.002 211.353 381.002 192.049C381.002 172.746 365.354 157.097 346.05 157.097C326.746 157.097 311.097 172.746 311.097 192.049C311.097 211.353 326.746 227.002 346.05 227.002Z"
            fill="#F4F6FB"
        />
        <path
            d="M346.049 169.815C346.82 169.815 347.444 170.44 347.444 171.21V191.027H344.655V171.21C344.655 170.44 345.279 169.815 346.049 169.815Z"
            fill="#0F5299"
        />
        <path
            d="M360.25 192.049C360.25 192.819 359.626 193.444 358.856 193.444H346.05V190.654H358.856C359.626 190.654 360.25 191.279 360.25 192.049Z"
            fill="#0F5299"
        />
        <path
            d="M346.05 195.274C347.831 195.274 349.275 193.83 349.275 192.049C349.275 190.268 347.831 188.824 346.05 188.824C344.269 188.824 342.825 190.268 342.825 192.049C342.825 193.83 344.269 195.274 346.05 195.274Z"
            fill="#E83430"
        />
        <path
            d="M346.199 161.367H345.893C345.207 161.367 344.651 161.923 344.651 162.609V165.704C344.651 166.39 345.207 166.946 345.893 166.946H346.199C346.885 166.946 347.441 166.39 347.441 165.704V162.609C347.441 161.923 346.885 161.367 346.199 161.367Z"
            fill="#CED7EC"
        />
        <path
            d="M324.352 170.356C324.896 169.811 325.78 169.811 326.324 170.356L328.296 172.328C328.841 172.873 328.841 173.756 328.296 174.3C327.752 174.845 326.869 174.845 326.324 174.3L324.352 172.328C323.807 171.783 323.807 170.9 324.352 170.356Z"
            fill="#CED7EC"
        />
        <path
            d="M315.368 192.053C315.368 191.282 315.993 190.658 316.763 190.658H319.552C320.322 190.658 320.947 191.282 320.947 192.053C320.947 192.823 320.322 193.447 319.552 193.447H316.763C315.993 193.447 315.368 192.823 315.368 192.053Z"
            fill="#CED7EC"
        />
        <path
            d="M324.357 213.747C323.812 213.203 323.812 212.32 324.357 211.775L326.329 209.803C326.874 209.258 327.757 209.258 328.301 209.803C328.846 210.347 328.846 211.23 328.301 211.775L326.329 213.747C325.784 214.292 324.901 214.292 324.357 213.747Z"
            fill="#CED7EC"
        />
        <path
            d="M345.9 222.73H346.206C346.892 222.73 347.448 222.175 347.448 221.489V218.394C347.448 217.708 346.892 217.152 346.206 217.152H345.9C345.214 217.152 344.659 217.708 344.659 218.394V221.489C344.659 222.175 345.214 222.73 345.9 222.73Z"
            fill="#CED7EC"
        />
        <path
            d="M367.747 213.741C367.202 214.286 366.319 214.286 365.774 213.741L363.802 211.769C363.258 211.224 363.258 210.341 363.802 209.796C364.347 209.252 365.23 209.252 365.774 209.796L367.747 211.769C368.291 212.313 368.291 213.196 367.747 213.741Z"
            fill="#CED7EC"
        />
        <path
            d="M376.731 192.045C376.731 192.815 376.107 193.44 375.337 193.44H372.548C371.777 193.44 371.153 192.815 371.153 192.045C371.153 191.275 371.777 190.65 372.548 190.65H375.337C376.107 190.65 376.731 191.275 376.731 192.045Z"
            fill="#CED7EC"
        />
        <path
            d="M367.743 170.351C368.288 170.896 368.288 171.779 367.743 172.324L365.771 174.296C365.226 174.841 364.343 174.841 363.798 174.296C363.254 173.751 363.254 172.868 363.798 172.324L365.771 170.351C366.315 169.807 367.198 169.807 367.743 170.351Z"
            fill="#CED7EC"
        />
        <path
            d="M838.21 242.473C830.332 242.473 823.946 236.087 823.946 228.21C823.946 220.332 830.332 213.946 838.21 213.946C846.087 213.946 852.473 220.332 852.473 228.21C852.473 236.087 846.087 242.473 838.21 242.473ZM881 234.482V221.518L870.785 218.923C870.034 216.211 868.957 213.634 867.599 211.239L872.988 202.178L863.822 193.012L854.761 198.401C852.365 197.043 849.789 195.966 847.078 195.216L844.481 185H831.519L828.922 195.216C826.211 195.966 823.635 197.043 821.239 198.401L812.178 193.012L803.012 202.178L808.401 211.239C807.043 213.634 805.966 216.211 805.215 218.923L795 221.518V234.482L805.215 237.077C805.966 239.789 807.043 242.365 808.401 244.76L803.012 253.822L812.178 262.988L821.239 257.599C823.635 258.957 826.211 260.034 828.922 260.784L831.519 271H844.481L847.078 260.784C849.789 260.034 852.365 258.957 854.761 257.599L863.822 262.988L872.988 253.822L867.599 244.76C868.957 242.365 870.034 239.789 870.785 237.077L881 234.482Z"
            fill="#0195D6"
        />
        <path
            d="M910.5 194.333C905.069 194.333 900.667 189.931 900.667 184.5C900.667 179.069 905.069 174.667 910.5 174.667C915.931 174.667 920.333 179.069 920.333 184.5C920.333 189.931 915.931 194.333 910.5 194.333ZM940 188.947V180.053L932.992 178.273C932.477 176.412 931.738 174.644 930.806 173.001L934.503 166.785L928.215 160.496L921.999 164.194C920.355 163.262 918.588 162.523 916.728 162.009L914.946 155H906.054L904.272 162.009C902.412 162.523 900.645 163.262 899.001 164.194L892.785 160.496L886.497 166.785L890.194 173.001C889.262 174.644 888.523 176.412 888.008 178.273L881 180.053V188.947L888.008 190.727C888.523 192.588 889.262 194.355 890.194 195.998L886.497 202.215L892.785 208.504L899.001 204.806C900.645 205.738 902.412 206.477 904.272 206.991L906.054 214H914.946L916.728 206.991C918.588 206.477 920.355 205.738 921.999 204.806L928.215 208.504L934.503 202.215L930.806 195.998C931.738 194.355 932.477 192.588 932.992 190.727L940 188.947Z"
            fill="#4DB1B3"
        />
        <path
            d="M830.936 243.918H488.491V220.284C488.491 215.157 492.662 211 497.805 211H821.622C826.766 211 830.936 215.157 830.936 220.284V243.918Z"
            fill="#253369"
        />
        <path
            d="M512.503 226.455C512.503 229.673 509.902 232.281 506.694 232.281C503.486 232.281 500.885 229.673 500.885 226.455C500.885 223.238 503.486 220.629 506.694 220.629C509.902 220.629 512.503 223.238 512.503 226.455Z"
            fill="#E83430"
        />
        <path
            d="M534.193 226.455C534.193 229.673 531.593 232.281 528.384 232.281C525.176 232.281 522.576 229.673 522.576 226.455C522.576 223.238 525.176 220.629 528.384 220.629C531.593 220.629 534.193 223.238 534.193 226.455Z"
            fill="#E66407"
        />
        <path
            d="M555.883 226.455C555.883 229.673 553.282 232.281 550.074 232.281C546.866 232.281 544.265 229.673 544.265 226.455C544.265 223.238 546.866 220.629 550.074 220.629C553.282 220.629 555.883 223.238 555.883 226.455Z"
            fill="#4DB1B3"
        />
        <path
            d="M498.372 469.922C492.644 469.922 488 465.772 488 460.654V239.987H830.445V460.654C830.445 465.772 825.801 469.922 820.073 469.922H498.372Z"
            fill="#E4EBF7"
        />
        <path
            d="M807.17 260.131H603.151C602.507 260.131 601.985 260.653 601.985 261.297V452.05C601.985 452.694 602.507 453.217 603.151 453.217H807.17C807.814 453.217 808.336 452.694 808.336 452.05V261.297C808.336 260.653 807.814 260.131 807.17 260.131Z"
            fill="white"
        />
        <path
            d="M584.113 258.658H510.784C510.14 258.658 509.618 259.181 509.618 259.825V450.577C509.618 451.222 510.14 451.744 510.784 451.744H584.113C584.757 451.744 585.28 451.222 585.28 450.577V259.825C585.28 259.181 584.757 258.658 584.113 258.658Z"
            fill="white"
        />
        <path
            d="M568.404 335.302H526.985C526.619 335.302 526.323 335.598 526.323 335.964V344.957C526.323 345.323 526.619 345.619 526.985 345.619H568.404C568.77 345.619 569.067 345.323 569.067 344.957V335.964C569.067 335.598 568.77 335.302 568.404 335.302Z"
            fill="#0F5299"
        />
        <path
            d="M568.414 355.445H526.975C526.615 355.445 526.323 355.737 526.323 356.098V365.11C526.323 365.471 526.615 365.763 526.975 365.763H568.414C568.775 365.763 569.067 365.471 569.067 365.11V356.098C569.067 355.737 568.775 355.445 568.414 355.445Z"
            fill="#0195D6"
        />
        <path
            d="M568.414 375.099H526.975C526.615 375.099 526.323 375.391 526.323 375.751V384.764C526.323 385.124 526.615 385.416 526.975 385.416H568.414C568.775 385.416 569.067 385.124 569.067 384.764V375.751C569.067 375.391 568.775 375.099 568.414 375.099Z"
            fill="#E66407"
        />
        <path
            d="M568.414 395.242H526.975C526.615 395.242 526.323 395.534 526.323 395.895V404.907C526.323 405.268 526.615 405.56 526.975 405.56H568.414C568.775 405.56 569.067 405.268 569.067 404.907V395.895C569.067 395.534 568.775 395.242 568.414 395.242Z"
            fill="#4DB1B3"
        />
        <path
            d="M744.67 401.629H622.415C621.985 401.629 621.637 401.977 621.637 402.407V406.256C621.637 406.685 621.985 407.033 622.415 407.033H744.67C745.1 407.033 745.448 406.685 745.448 406.256V402.407C745.448 401.977 745.1 401.629 744.67 401.629Z"
            fill="#0195D6"
        />
        <path
            d="M744.67 430.616H622.415C621.985 430.616 621.637 430.964 621.637 431.394V435.243C621.637 435.672 621.985 436.021 622.415 436.021H744.67C745.1 436.021 745.448 435.672 745.448 435.243V431.394C745.448 430.964 745.1 430.616 744.67 430.616Z"
            fill="#0195D6"
        />
        <path
            d="M785.94 415.386H622.415C621.985 415.386 621.637 415.734 621.637 416.163V420.012C621.637 420.442 621.985 420.79 622.415 420.79H785.94C786.37 420.79 786.718 420.442 786.718 420.012V416.163C786.718 415.734 786.37 415.386 785.94 415.386Z"
            fill="#0195D6"
        />
        <path
            d="M786.145 278.802H623.193C622.334 278.802 621.637 279.498 621.637 280.357V387.792C621.637 388.651 622.334 389.347 623.193 389.347H786.145C787.004 389.347 787.701 388.651 787.701 387.792V280.357C787.701 279.498 787.004 278.802 786.145 278.802Z"
            fill="#0F5299"
        />
        <path
            d="M548.676 313.685C559.123 313.685 567.592 305.106 567.592 294.523C567.592 283.941 559.123 275.362 548.676 275.362C538.23 275.362 529.761 283.941 529.761 294.523C529.761 305.106 538.23 313.685 548.676 313.685Z"
            fill="#FFC53D"
        />
        <path
            d="M548.676 313.685C554.128 313.689 559.302 311.249 562.809 307.021C560.046 301.706 554.603 298.379 548.673 298.379C542.743 298.379 537.3 301.706 534.537 307.021C538.046 311.25 543.222 313.689 548.676 313.685Z"
            fill="#0F5299"
        />
        <path
            d="M548.776 299.14C552.705 299.14 555.89 295.914 555.89 291.934C555.89 287.954 552.705 284.728 548.776 284.728C544.847 284.728 541.662 287.954 541.662 291.934C541.662 295.914 544.847 299.14 548.776 299.14Z"
            fill="#0F5299"
        />
        <path
            d="M623.111 317.615H788.192"
            stroke="white"
            stroke-width="1.08"
            stroke-linecap="round"
            stroke-linejoin="round"
        />
        <path
            d="M659.96 389.346V277.818"
            stroke="white"
            stroke-width="1.08"
            stroke-linecap="round"
            stroke-linejoin="round"
        />
        <path
            d="M704.669 389.346V277.818"
            stroke="white"
            stroke-width="1.08"
            stroke-linecap="round"
            stroke-linejoin="round"
        />
        <path
            d="M747.905 389.346V277.818"
            stroke="white"
            stroke-width="1.08"
            stroke-linecap="round"
            stroke-linejoin="round"
        />
        <path
            d="M623.111 354.464H788.192"
            stroke="white"
            stroke-width="1.08"
            stroke-linecap="round"
            stroke-linejoin="round"
        />
        <path
            d="M811.348 398.186C811.348 398.186 819.583 379.017 829.521 362.559C838.586 347.554 848.77 335.753 858.45 341.119C870.606 347.855 856.932 368.254 850.817 379.084C846.417 386.877 835.733 402.277 829.539 409.894C819.66 422.044 804.189 409.721 811.348 398.186Z"
            fill="#FFC999"
        />
        <path
            d="M847.935 383.519C854.101 372.758 873.34 349.763 858.211 341.293C847.537 335.318 837.025 347.902 825.771 368.299L847.935 383.519Z"
            fill="#E4EBF7"
        />
        <path
            d="M790.213 339.515L780.844 313.817C780.844 313.817 767.107 293.422 762.812 295.056C758.864 297.145 768.536 302.557 770.811 308.44C766.908 308.45 769.098 314.095 769.098 314.095C769.098 314.095 765.998 314.211 767.178 318.856C764.434 320.768 767.134 325.998 767.134 325.998C767.134 325.998 773.953 339.8 781.044 348.817C781.044 348.817 792.249 356.218 790.213 339.515Z"
            fill="#FFC999"
        />
        <path
            d="M787.553 330.535C787.553 330.535 785.828 321.624 784.692 317.104C783.557 312.585 784.844 304.168 781.751 306.608C779.671 308.248 780.407 313.141 780.746 316.764C781.085 320.387 776.002 329.424 780.682 335.056C783.842 338.86 788.41 339.044 787.553 330.535Z"
            fill="#FFC999"
        />
        <path
            d="M770.922 307.949C770.766 307.812 770.524 307.824 770.383 307.975C770.241 308.126 770.253 308.36 770.409 308.497L770.659 308.722L770.977 309.017C771.088 309.122 771.205 309.232 771.325 309.349C772.016 310.013 772.706 310.725 773.349 311.454C774.01 312.203 774.584 312.929 775.044 313.613C776.475 315.741 776.647 317.172 775.361 317.803C775.173 317.895 775.097 318.118 775.193 318.3C775.288 318.482 775.518 318.555 775.706 318.463C777.559 317.554 777.332 315.659 775.684 313.21C775.204 312.496 774.611 311.746 773.93 310.974C773.272 310.228 772.568 309.502 771.864 308.825L771.508 308.486L770.956 307.979C770.943 307.968 770.932 307.958 770.922 307.949Z"
            fill="#DD936F"
        />
        <path
            d="M769.261 314.183C769.149 314.351 769.197 314.575 769.368 314.685L769.617 314.848L769.934 315.063C770.045 315.139 770.161 315.22 770.281 315.305C770.968 315.791 771.656 316.314 772.296 316.853C773.056 317.494 773.697 318.114 774.18 318.694C775.252 319.98 775.429 320.884 774.65 321.431C774.23 321.726 773.719 321.775 773.108 321.603C772.501 321.432 771.833 321.052 771.149 320.524C770.805 320.259 770.479 319.973 770.182 319.688L770.043 319.551C769.938 319.447 769.86 319.365 769.812 319.313C769.676 319.163 769.441 319.149 769.288 319.282C769.134 319.415 769.12 319.644 769.256 319.793L769.387 319.932C769.46 320.007 769.552 320.099 769.66 320.203C769.974 320.506 770.32 320.809 770.688 321.093C771.441 321.673 772.186 322.098 772.902 322.299C773.716 322.528 774.461 322.456 775.084 322.019C776.325 321.148 776.062 319.803 774.757 318.237C774.243 317.619 773.572 316.971 772.782 316.305C772.124 315.751 771.421 315.216 770.717 314.719C770.533 314.588 770.358 314.467 770.196 314.357L769.776 314.079C769.604 313.969 769.374 314.016 769.261 314.183Z"
            fill="#DD936F"
        />
        <path
            d="M768.44 318.504C768.237 318.487 768.059 318.638 768.043 318.84C768.026 319.042 768.176 319.219 768.379 319.236C769.029 319.289 769.873 319.795 770.91 320.844C773.095 323.053 773.636 324.572 773.004 325.006C772.373 325.439 770.832 324.871 769.779 323.584C769.49 323.231 768.942 323.615 769.179 324.005C770.27 325.808 771.476 327.143 772.857 328.168L773.088 328.337C774.025 329.013 774.69 329.358 776.437 330.125L777.116 330.421C780.295 331.8 781.555 332.965 782.452 336.17C782.506 336.365 782.709 336.479 782.905 336.425C783.101 336.37 783.215 336.168 783.161 335.973C782.195 332.522 780.773 331.207 777.41 329.748L776.357 329.287C774.814 328.601 774.234 328.275 773.297 327.579C772.606 327.067 771.962 326.472 771.353 325.77L771.197 325.585C771.995 325.931 772.776 325.985 773.327 325.67L773.421 325.61C774.606 324.797 773.904 322.826 771.434 320.329C770.285 319.167 769.298 318.575 768.44 318.504Z"
            fill="#DD936F"
        />
        <path
            d="M780.604 311.777C780.439 311.776 780.301 311.91 780.274 312.088L780.269 312.149L780.216 319.065L780.182 319.142C780.129 319.268 780.069 319.413 780.005 319.577C779.823 320.042 779.641 320.561 779.471 321.121C778.95 322.839 778.653 324.566 778.695 326.189C778.733 327.675 779.059 328.999 779.72 330.108C779.822 330.279 780.028 330.325 780.18 330.209C780.332 330.094 780.372 329.861 780.27 329.69C779.685 328.707 779.393 327.521 779.357 326.167C779.318 324.646 779.601 323.003 780.098 321.364C780.262 320.825 780.437 320.326 780.612 319.88L780.732 319.582C780.755 319.525 780.776 319.476 780.794 319.434L780.841 319.328C780.857 319.293 780.868 319.256 780.874 319.218L780.878 319.159L780.933 312.155C780.934 311.948 780.787 311.779 780.604 311.777Z"
            fill="#DD936F"
        />
        <path
            d="M867.247 335.128C867.247 335.128 868.982 347.663 883.779 349.172C900.956 350.923 904.799 337.491 904.799 337.491L900.818 335.761C899.993 335.403 899.468 334.59 899.494 333.697C899.581 330.508 899.855 322.381 900.611 311.703C886.355 305.385 875.736 308.747 875.736 308.747C875.736 308.747 874.691 321.409 873.756 330.725C873.664 331.628 873.026 333.384 872.145 333.625C870.625 334.041 868.315 334.696 867.247 335.128Z"
            fill="#FFC999"
        />
        <path
            d="M905.152 301.167C905.152 301.167 908.006 280.589 892.524 278.524C873.826 276.031 871.912 286.591 870.274 291.455C868.533 296.623 865.132 318.711 876.01 324.431C880.661 326.516 883.55 327.708 892.192 323.671C904.767 317.797 905.152 301.167 905.152 301.167Z"
            fill="#FFC999"
        />
        <path
            d="M899.194 316.498L900.411 305.128C900.411 305.128 909.828 300.457 910.359 306.344C910.9 312.346 906.432 316.099 902.535 317.185C900.029 317.884 899.194 316.498 899.194 316.498Z"
            fill="#FFC999"
        />
        <path
            d="M900.575 276.09C900.575 276.09 891.468 268.723 886.908 269.203C882.348 269.684 885.625 273.452 885.625 273.452C885.625 273.452 873.345 270.37 871.995 273.099C870.645 275.828 875.031 277.51 875.031 277.51C875.031 277.51 862.587 279.998 861.729 283.619C860.871 287.24 866.648 286.859 866.648 286.859C866.648 286.859 861.919 291.773 863.072 294.99C864.224 298.208 867.062 298.06 867.062 298.06L868.703 302.357L870.054 293.667C870.054 293.667 874.569 292.094 882.934 288.8C877.658 293.481 880.682 293.724 884.838 293.214C889.709 292.616 895.444 291.379 895.172 291.217C895.172 291.217 894.863 296.916 898.434 299.811C902.814 303.36 898.997 309.653 900.19 310.034C902.483 310.788 902.672 304.369 907.255 303.606C910.785 303.61 911.696 299.331 910.831 297.794C915.516 297.513 915.716 292.703 910.06 288.078C915.311 287.795 912.471 282.738 904.911 280.134C907.991 271.726 900.575 276.09 900.575 276.09Z"
            fill="#253368"
        />
        <path
            d="M892.848 297.862C890.549 297.356 888.218 297.103 886.026 297.244C885.778 297.26 885.533 297.281 885.291 297.307C884.879 297.352 884.581 297.727 884.625 298.145C884.669 298.564 885.039 298.866 885.451 298.822C885.671 298.798 885.894 298.779 886.121 298.764C888.156 298.633 890.355 298.872 892.53 299.351C893.148 299.487 893.717 299.633 894.223 299.779L894.678 299.915C894.746 299.936 894.801 299.954 894.841 299.968C895.234 300.101 895.659 299.886 895.791 299.487C895.923 299.089 895.711 298.657 895.318 298.523L895.133 298.463L894.899 298.391C894.816 298.366 894.727 298.34 894.633 298.313C894.098 298.159 893.499 298.005 892.848 297.862Z"
            fill="#253368"
        />
        <path
            d="M878.386 296.719C876.343 295.962 874.054 295.812 871.686 296.653C871.293 296.792 871.079 297.251 871.207 297.678C871.335 298.105 871.758 298.338 872.151 298.199C874.18 297.478 876.145 297.607 877.903 298.259C878.22 298.376 878.501 298.502 878.742 298.626L878.886 298.702C878.946 298.735 878.988 298.76 879.011 298.774C879.367 299.002 879.826 298.872 880.035 298.485C880.244 298.097 880.124 297.599 879.768 297.372C879.498 297.199 879.027 296.957 878.386 296.719Z"
            fill="#253368"
        />
        <path
            d="M879.496 298.327L879.438 298.335C879.265 298.375 879.149 298.538 879.158 298.715L879.166 298.775L879.684 301.188L878.46 309.768C878.437 309.928 878.518 310.082 878.654 310.152L878.708 310.174L881.915 311.201C882.104 311.261 882.305 311.152 882.363 310.958C882.416 310.782 882.336 310.597 882.182 310.518L882.127 310.496L879.213 309.562L880.402 301.228L880.397 301.094L879.865 298.616C879.827 298.437 879.668 298.317 879.496 298.327Z"
            fill="#DD936F"
        />
        <path
            d="M892.596 304.061C891.195 303.187 889.508 303.062 887.671 304.153C887.435 304.293 887.354 304.603 887.489 304.846C887.625 305.089 887.925 305.173 888.16 305.034C889.666 304.14 890.975 304.237 892.088 304.931C892.277 305.048 892.442 305.174 892.582 305.299L892.695 305.405C892.713 305.423 892.726 305.437 892.735 305.446C892.917 305.654 893.228 305.668 893.429 305.48C893.63 305.291 893.644 304.969 893.461 304.762C893.297 304.576 893.006 304.317 892.596 304.061Z"
            fill="#253368"
        />
        <path
            d="M876.811 302.328C875.76 301.727 874.663 301.494 873.607 301.871C873.204 302.015 872.824 302.246 872.471 302.567C872.256 302.763 872.23 303.108 872.413 303.339C872.595 303.569 872.917 303.597 873.132 303.402C873.386 303.171 873.651 303.009 873.929 302.91C874.673 302.645 875.503 302.821 876.33 303.294C876.529 303.408 876.711 303.53 876.871 303.651L877.005 303.758C877.028 303.776 877.045 303.791 877.056 303.801C877.272 303.996 877.594 303.967 877.776 303.736C877.957 303.505 877.93 303.16 877.715 302.965C877.532 302.799 877.221 302.563 876.811 302.328Z"
            fill="#253368"
        />
        <path
            d="M887.424 313.261C887.424 313.261 881.893 314.028 876.775 312.898C876.775 312.898 877.919 315.988 881.573 316.24C886.186 316.557 887.424 313.261 887.424 313.261Z"
            fill="white"
        />
        <path
            d="M877.293 312.35C877.626 312.431 877.966 312.503 878.313 312.569C880.771 313.031 883.386 313.092 885.837 312.905L886.325 312.865C886.52 312.847 886.703 312.829 886.873 312.81L887.501 312.732C887.816 312.683 888.066 313.004 887.959 313.317C887.803 313.776 887.441 314.434 886.81 315.088C885.644 316.297 884.002 316.961 881.837 316.797C880.225 316.675 878.949 315.97 877.984 314.877C877.611 314.455 877.311 314.004 877.077 313.553C876.935 313.278 876.844 313.06 876.799 312.927C876.689 312.598 876.968 312.271 877.293 312.35ZM877.97 313.399L878.041 313.521C878.202 313.779 878.389 314.034 878.604 314.277C879.431 315.213 880.512 315.811 881.898 315.916C883.815 316.061 885.22 315.493 886.216 314.46L886.366 314.298C886.511 314.133 886.639 313.964 886.753 313.793L886.81 313.704L886.397 313.745C883.74 313.985 880.869 313.947 878.164 313.438L877.97 313.399Z"
            fill="#FF7A46"
        />
        <path
            d="M874.633 323.669C874.495 323.521 874.257 323.507 874.1 323.637C873.944 323.767 873.929 323.993 874.067 324.141L874.163 324.239C874.277 324.349 874.443 324.499 874.663 324.676C875.145 325.064 875.721 325.451 876.391 325.812C879.794 327.645 884.146 328.12 889.411 326.416C889.608 326.352 889.713 326.149 889.646 325.963C889.578 325.776 889.363 325.677 889.166 325.741C884.112 327.377 879.984 326.926 876.765 325.192C876.137 324.854 875.6 324.493 875.153 324.132L874.972 323.982C874.807 323.842 874.695 323.734 874.633 323.669Z"
            fill="#DD936F"
        />
        <path
            d="M880.537 318.504C880.327 318.49 880.149 318.693 880.138 318.956C880.128 319.193 880.258 319.399 880.437 319.447L880.499 319.457L883.101 319.623C883.311 319.637 883.489 319.434 883.5 319.171C883.51 318.934 883.38 318.728 883.201 318.68L883.139 318.67L880.537 318.504Z"
            fill="#DD936F"
        />
        <path
            d="M908.239 305.855C907.192 305.306 905.928 305.641 904.682 307.352L904.481 307.631C903.568 308.917 903.467 309.336 904.2 309.55L904.468 309.621C904.557 309.646 904.584 309.659 904.643 309.692C904.797 309.78 904.919 309.934 905.01 310.219C905.388 311.393 904.062 312.248 902.413 312.115C902.2 312.098 902.014 312.256 901.997 312.468C901.979 312.68 902.138 312.866 902.351 312.883C904.462 313.053 906.342 311.838 905.747 309.984C905.597 309.52 905.353 309.209 905.025 309.023L904.911 308.961C904.859 308.936 904.811 308.917 904.739 308.896L904.596 308.858L904.606 308.839C904.708 308.656 904.9 308.367 905.21 307.937L905.309 307.804C906.334 306.395 907.182 306.171 907.879 306.536C907.939 306.567 907.985 306.597 908.018 306.621L908.067 306.66C908.221 306.807 908.466 306.801 908.614 306.648C908.762 306.494 908.757 306.25 908.603 306.103C908.529 306.033 908.407 305.943 908.239 305.855Z"
            fill="#DD936F"
        />
        <path
            d="M899.552 316.3C899.369 316.21 899.144 316.28 899.05 316.457L898.934 316.669C898.84 316.84 898.731 317.03 898.611 317.236C898.268 317.823 897.899 318.409 897.52 318.956C897.097 319.566 896.687 320.086 896.304 320.488C895.993 320.815 895.706 321.054 895.456 321.194C895.278 321.294 895.218 321.514 895.321 321.686C895.424 321.858 895.652 321.917 895.83 321.817C896.154 321.635 896.494 321.352 896.852 320.976C897.265 320.543 897.696 319.995 898.139 319.356C898.53 318.793 898.908 318.192 899.26 317.59L899.516 317.144L899.713 316.785C899.807 316.608 899.735 316.391 899.552 316.3Z"
            fill="#DD936F"
        />
        <path
            d="M855.888 426.328C851.618 432.253 856.124 437.745 856.124 437.745C874.629 437.887 913.981 437.885 913.981 437.885C920.795 435.687 917.043 422.949 917.043 422.949C917.043 422.949 921.003 392.199 924.037 368.014C925.343 357.599 927.801 342.015 927.092 341.698C919.137 338.143 911.977 336.827 899.66 334.495C899.299 335.255 896.119 341.324 884.604 340.152C873.998 339.073 871.868 334.64 871.43 333.636C865.256 335.185 857.475 337.729 850.249 340.218C848.052 340.975 846.737 343.226 847.143 345.512L847.793 353.775C847.793 353.775 846.811 375.938 855.888 426.328Z"
            fill="#E4EBF7"
        />
        <path
            d="M902.495 339.417C902.381 339.238 902.147 339.187 901.973 339.304C892.759 345.474 883.123 345.818 874.261 342.702C873.098 342.293 872.058 341.856 871.155 341.419L870.796 341.241C870.739 341.213 870.684 341.185 870.631 341.157L870.187 340.919C870.126 340.885 870.082 340.86 870.055 340.843C869.874 340.736 869.643 340.799 869.539 340.984C869.434 341.17 869.496 341.407 869.676 341.515L869.896 341.639L869.979 341.685C870.222 341.817 870.508 341.963 870.833 342.121C871.761 342.57 872.827 343.018 874.016 343.436C883.08 346.623 892.952 346.27 902.385 339.954C902.559 339.837 902.609 339.597 902.495 339.417Z"
            fill="#96A7CA"
        />
        <path
            d="M848.601 364.462C848.393 364.454 848.218 364.615 848.21 364.822L848.2 365.174C848.177 366.375 848.193 368.104 848.279 370.375L848.318 371.337C848.446 374.268 848.671 377.617 849.011 381.391L849.068 382.024C850.167 393.921 852.218 408.197 855.446 424.945L855.601 425.746L855.528 425.909C853.119 431.402 853.602 434.777 855.968 436.442L856.086 436.523C856.55 436.831 857.046 437.044 857.542 437.18C857.842 437.263 858.079 437.302 858.263 437.314L864.269 437.204C865.754 437.18 867.318 437.156 868.946 437.132L873.332 437.075C878.68 437.01 883.961 436.967 888.998 436.955L892.118 436.951C901.55 436.951 909.206 437.067 914.492 437.325C914.7 437.334 914.877 437.175 914.888 436.968C914.897 436.762 914.737 436.586 914.528 436.576L912.832 436.501C907.291 436.282 899.629 436.189 890.364 436.203C883.554 436.213 876.261 436.279 868.935 436.384L863.003 436.477L858.285 436.567C858.185 436.559 857.994 436.527 857.743 436.458C857.32 436.342 856.898 436.161 856.505 435.9C854.345 434.468 853.888 431.386 856.338 425.943C856.37 425.873 856.379 425.795 856.364 425.719L856.012 423.895C852.947 407.865 850.97 394.13 849.881 382.605L849.82 381.955C849.429 377.723 849.182 374.015 849.051 370.822L849.033 370.347C848.957 368.328 848.936 366.742 848.949 365.581L848.962 364.891C848.963 364.876 848.963 364.862 848.964 364.851C848.972 364.645 848.81 364.471 848.601 364.462Z"
            fill="#96A7CA"
        />
        <path
            d="M778.614 346.004C778.614 346.004 798.032 395.642 810.594 410.597C817.619 418.96 831.942 414.671 830.091 401.865C828.574 391.354 790.897 339.173 790.897 339.173C790.897 339.173 788.141 333.623 781.619 336.929C774.848 340.359 778.614 346.004 778.614 346.004Z"
            fill="#FFC999"
        />
        <path
            d="M860.993 423.185L846.484 378.043C846.245 377.299 845.554 376.79 844.768 376.78L804.083 376.233C802.82 376.216 801.921 377.45 802.331 378.639L817.478 422.58C817.721 423.287 818.375 423.773 819.125 423.806L859.174 425.553C860.443 425.608 861.381 424.389 860.993 423.185Z"
            fill="#7B8DAF"
        />
        <path
            d="M858.732 422.685L844.494 378.318C844.204 377.417 843.369 376.8 842.42 376.787L801.283 376.233C800.401 376.221 799.773 377.085 800.058 377.916L815.396 422.478C815.665 423.261 816.388 423.8 817.218 423.836L856.532 425.553C858.067 425.621 859.201 424.143 858.732 422.685Z"
            fill="#253368"
        />
        <path
            d="M838.911 381.054C838.471 381.557 838.629 382.442 839.265 383.03C839.901 383.617 840.774 383.686 841.215 383.182C841.656 382.679 841.497 381.794 840.861 381.206C840.225 380.619 839.352 380.55 838.911 381.054Z"
            fill="#253368"
        />
        <path
            d="M839.372 381.479C839.108 381.781 839.203 382.312 839.583 382.665C839.966 383.018 840.491 383.059 840.754 382.757C841.018 382.454 840.923 381.923 840.543 381.572C840.16 381.219 839.636 381.178 839.372 381.479Z"
            fill="#E1E7F3"
        />
        <path
            d="M848.629 429.354C846.301 429.126 845.076 428.145 845.297 426.188C842.497 425.3 842.81 422.908 842.81 422.908C842.81 422.908 837.421 422.826 836.514 420.502C836.162 419.601 836.845 418.635 837.805 418.57C849.351 417.781 857.583 411.611 857.583 411.611C857.583 411.611 853.044 404.888 853.523 401.785C853.666 400.867 854.854 400.571 855.412 401.311C860.172 407.647 869.716 412.615 869.716 412.615C869.716 412.615 881.174 423.442 868.745 428.353C868.745 428.353 859.271 432.159 852.675 431.678C849.551 431.449 848.629 429.354 848.629 429.354Z"
            fill="#FFC999"
        />
        <path
            d="M851.505 420.706C851.404 420.522 851.174 420.457 850.992 420.559C850.151 421.034 849.169 421.42 848.073 421.726C846.766 422.09 845.362 422.323 843.95 422.45C843.21 422.516 842.584 422.545 842.121 422.55L841.847 422.551C841.639 422.548 841.467 422.716 841.465 422.927C841.462 423.116 841.597 423.275 841.776 423.307L841.837 423.313H841.988C842.481 423.312 843.179 423.284 844.017 423.209C845.471 423.078 846.918 422.838 848.274 422.46C849.424 422.139 850.462 421.731 851.36 421.224C851.542 421.122 851.607 420.889 851.505 420.706Z"
            fill="#DD936F"
        />
        <path
            d="M852.636 424.075C852.545 423.898 852.318 423.824 852.129 423.91L851.796 424.055C850.392 424.648 848.884 425.028 847.369 425.237C846.578 425.346 845.919 425.393 845.453 425.403L845.218 425.404C845.003 425.402 844.83 425.559 844.828 425.755C844.825 425.932 844.961 426.081 845.141 426.11L845.213 426.116L845.465 426.114C845.962 426.104 846.653 426.055 847.48 425.941C849.06 425.723 850.634 425.326 852.109 424.704C852.227 424.654 852.344 424.603 852.46 424.55C852.649 424.465 852.728 424.252 852.636 424.075Z"
            fill="#DD936F"
        />
        <path
            d="M854.319 428.03C854.231 427.825 854.012 427.739 853.83 427.838C853.455 428.042 852.568 428.233 851.362 428.389C850.745 428.47 850.083 428.536 849.42 428.59L848.538 428.654C848.336 428.665 848.18 428.859 848.191 429.087C848.201 429.314 848.373 429.489 848.575 429.478L849.133 429.44C849.242 429.432 849.355 429.423 849.473 429.413C850.145 429.359 850.818 429.291 851.446 429.209L851.887 429.148C852.952 428.993 853.728 428.81 854.148 428.581C854.331 428.482 854.407 428.235 854.319 428.03Z"
            fill="#DD936F"
        />
        <path
            d="M872.946 427.011C872.946 427.011 926.103 431.455 945.086 426.772C955.702 424.153 958.188 409.413 945.87 405.431C935.76 402.164 872.246 412.981 872.246 412.981C872.246 412.981 866.044 413.008 866.125 420.318C866.213 427.903 872.946 427.011 872.946 427.011Z"
            fill="#FFC999"
        />
        <path
            d="M953.436 407.637C953.436 407.637 949.715 387.093 943.728 368.802C938.268 352.125 930.996 338.315 920.368 341.34C907.02 345.141 915.762 368.12 919.287 380.059C921.824 388.652 928.775 406.081 933.098 414.909C939.992 428.99 957.822 420.501 953.436 407.637Z"
            fill="#FFC999"
        />
        <path
            d="M920.633 384.64C917.072 372.684 903.552 345.765 920.234 340.865C932.005 337.407 939.389 352.134 945.714 374.698L920.633 384.64Z"
            fill="#E4EBF7"
        />
        <path
            d="M913.934 365.833C913.863 365.636 913.647 365.535 913.452 365.607C913.277 365.672 913.179 365.855 913.213 366.034L913.229 366.093L920.078 384.952C920.143 385.132 920.33 385.232 920.509 385.192L920.569 385.174L945.477 375.196C945.67 375.119 945.764 374.899 945.687 374.704C945.618 374.529 945.435 374.435 945.258 374.474L945.2 374.492L920.65 384.326L913.934 365.833Z"
            fill="#96A7CA"
        />
        <path
            d="M907.505 496.64C907.505 496.64 916.197 485.327 913.099 479.394C910.296 474.021 902.882 476.633 902.882 476.633C902.882 476.633 897.322 479.328 892.133 483.839C888.733 486.796 881.422 491.462 882.484 493.591C883.868 496.366 890.556 490.388 892.609 491.36C896.769 493.33 887.247 503.834 886.627 506.356C885.414 511.287 897.185 510.289 907.505 496.64Z"
            fill="#FFC999"
        />
        <path
            d="M896.719 496.205C896.525 496.125 896.303 496.215 896.223 496.407L896.083 496.722C896.044 496.806 895.998 496.904 895.947 497.013C895.714 497.501 895.437 498.045 895.114 498.631C894.193 500.307 893.097 501.983 891.833 503.545C890.683 504.967 889.446 506.225 888.127 507.275C887.963 507.405 887.937 507.642 888.068 507.805C888.199 507.967 888.438 507.993 888.601 507.863C889.967 506.777 891.241 505.48 892.425 504.017C893.719 502.417 894.839 500.705 895.78 498.992C896.055 498.492 896.298 498.022 896.51 497.59L896.693 497.207L896.923 496.698C897.003 496.506 896.912 496.285 896.719 496.205Z"
            fill="#DD936F"
        />
        <path
            d="M900.685 497.341C900.509 497.245 900.29 497.311 900.195 497.489C899.812 498.206 899.415 498.9 899.005 499.572C897.479 502.074 895.844 504.165 894.211 505.862C893.713 506.381 893.246 506.829 892.819 507.208L892.639 507.366C892.358 507.61 892.159 507.769 892.056 507.845C891.895 507.964 891.86 508.193 891.978 508.357C892.096 508.52 892.322 508.555 892.484 508.436L892.596 508.349L892.867 508.129C892.943 508.065 893.025 507.996 893.111 507.921C893.601 507.497 894.145 506.981 894.73 506.373C896.399 504.638 898.066 502.505 899.621 499.956C900.038 499.272 900.442 498.566 900.832 497.837C900.927 497.659 900.861 497.437 900.685 497.341Z"
            fill="#DD936F"
        />
        <path
            d="M904.583 496.77C904.398 496.684 904.179 496.767 904.094 496.955L904.024 497.102C903.983 497.185 903.928 497.292 903.859 497.421L903.805 497.522C903.548 497.996 903.221 498.546 902.818 499.168C901.662 500.949 900.129 502.935 898.172 505.074C898.033 505.226 898.042 505.463 898.191 505.604C898.34 505.745 898.574 505.736 898.712 505.584C900.698 503.415 902.255 501.396 903.434 499.58C903.796 499.022 904.099 498.518 904.348 498.071L904.451 497.884C904.521 497.754 904.583 497.636 904.636 497.531L904.765 497.267C904.85 497.079 904.768 496.856 904.583 496.77Z"
            fill="#DD936F"
        />
        <path
            d="M881.367 576.698C886.222 534.009 881.271 498.31 881.271 498.31C881.271 498.31 868.377 464.59 851.282 487.115C843.003 498.024 844.287 526.627 849.951 574.194C849.951 574.194 850.585 596.49 866.917 595.931C880.589 595.463 881.367 576.698 881.367 576.698Z"
            fill="#FFC999"
        />
        <path
            d="M884.539 547.359C866.706 553.456 846.608 547.086 846.608 547.086C845.777 534.087 843.402 525.212 845 479.5C867.673 463.967 885 486.676 885 486.676L884.539 547.359Z"
            fill="#0195D6"
        />
        <path
            d="M848.108 538.786C847.908 538.731 847.7 538.845 847.644 539.041C847.588 539.236 847.704 539.438 847.905 539.493L848.257 539.583L848.624 539.672C848.819 539.718 849.033 539.767 849.263 539.818C850.36 540.059 851.625 540.3 853.043 540.525C862.319 541.997 872.686 542.064 883.205 539.801C883.408 539.757 883.536 539.561 883.492 539.363C883.447 539.165 883.246 539.04 883.042 539.084C872.627 541.325 862.353 541.259 853.165 539.801C851.762 539.578 850.511 539.34 849.429 539.101L848.802 538.959L848.202 538.811C848.162 538.801 848.13 538.792 848.108 538.786Z"
            fill="#1D39C4"
        />
        <path
            d="M884.251 486.087C884.065 486.086 883.91 486.221 883.879 486.4L883.874 486.461L883.421 547L883.32 547.034C883.033 547.13 882.694 547.238 882.306 547.354C881.196 547.687 879.916 548.019 878.484 548.33C868.392 550.522 857.303 550.461 846.446 546.639C846.251 546.571 846.037 546.674 845.969 546.871C845.901 547.067 846.004 547.282 846.199 547.351C857.203 551.224 868.426 551.285 878.642 549.067C880.092 548.752 881.391 548.414 882.519 548.076L882.97 547.938C883.184 547.872 883.379 547.808 883.556 547.749L883.921 547.622C884.049 547.575 884.14 547.462 884.161 547.329L884.166 547.271L884.622 486.467C884.623 486.258 884.457 486.089 884.251 486.087Z"
            fill="#0F5299"
        />
        <path
            d="M882.522 614.701C879.71 647.755 874.591 670.262 876.315 703.293C876.524 707.3 870.758 707.957 865.299 707.929C853.716 718.593 831.149 723.017 827.786 718.771C825.767 716.221 833.27 705.736 840.792 703.38C857.601 698.118 856.018 678.45 856.018 678.45C856.018 678.45 852.354 628.302 850.229 589.819C850.229 589.819 850.083 561.57 864.81 561.752C890.305 562.072 883.48 603.419 882.522 614.701Z"
            fill="#FFC999"
        />
        <path
            d="M818.218 719.366C818.218 719.366 820.744 724.489 833.718 723.832C846.692 723.176 852.716 717.489 859.519 716.49C872.232 714.623 877.702 711.4 877.702 711.4C877.702 711.4 878.353 713.325 877.269 715.925C875.595 719.935 863.675 718.585 856.624 721.853C851.524 724.217 847.538 725.553 839.035 727.515C830.532 729.478 819.823 726.983 818.589 724.112C817.354 721.241 818.218 719.366 818.218 719.366Z"
            fill="#96A7CA"
        />
        <path
            d="M877.385 711.702C877.385 711.702 874.511 713.353 864.858 715.625C862.549 716.169 860.282 716.786 856.268 718.154C850.096 720.256 830.635 728.946 819.099 721.013C817.344 719.05 817.842 716.768 818.744 715.008C819.603 713.332 821.1 712.073 822.887 711.47C828.304 709.642 841.25 705.304 847.934 695.49C848.716 694.341 850.116 693.795 851.47 694.117C853.11 694.506 855.234 695.318 856.748 697.01C858.008 698.418 854.427 703.722 855.82 703.977C859.652 704.679 866.106 703.637 870.255 700.94C873.731 698.681 875.916 696.514 875.916 696.514C875.916 696.514 879.11 706.184 877.385 711.702Z"
            fill="#0F5299"
        />
        <path
            d="M823.062 714.822C822.861 714.709 822.597 714.765 822.472 714.949C822.348 715.133 822.41 715.374 822.611 715.488L822.712 715.542C822.812 715.592 822.954 715.659 823.136 715.736C823.553 715.913 824.051 716.089 824.629 716.252C828.131 717.243 832.706 717.349 838.341 716.009C838.571 715.954 838.708 715.74 838.648 715.531C838.588 715.322 838.354 715.197 838.125 715.251C832.645 716.555 828.233 716.453 824.882 715.505C824.419 715.373 824.014 715.235 823.666 715.096L823.497 715.026C823.273 714.931 823.128 714.859 823.062 714.822Z"
            fill="#96A7CA"
        />
        <path
            d="M844.809 699.646C844.58 699.584 844.344 699.72 844.282 699.95C844.22 700.18 844.355 700.417 844.584 700.48L844.708 700.517C844.746 700.528 844.79 700.543 844.84 700.559C845.052 700.63 845.289 700.718 845.545 700.825C846.277 701.13 847.009 701.52 847.69 702.001C848.476 702.556 849.141 703.198 849.65 703.93C849.786 704.126 850.054 704.173 850.249 704.037C850.443 703.9 850.491 703.631 850.355 703.435C849.784 702.615 849.047 701.904 848.184 701.294C847.447 700.774 846.66 700.355 845.873 700.027C845.667 699.941 845.471 699.866 845.288 699.801L845.11 699.74C844.969 699.693 844.867 699.662 844.809 699.646Z"
            fill="#96A7CA"
        />
        <path
            d="M924 481.558L887.859 500.299C887.859 500.299 878.765 502.382 872.223 499.366C862.717 494.984 852.141 488.042 845 480.413C845.742 456.299 854.164 443 854.164 443L915.737 443.425C915.737 443.425 921.643 451.543 924 481.558Z"
            fill="#0195D6"
        />
        <path
            d="M853.795 443.9L854.865 436.545L915.492 435.644L916.569 443.683C916.569 443.683 859.971 444.338 853.795 443.9Z"
            fill="#0195D6"
        />
        <path
            d="M878.64 436.205C878.419 436.192 878.229 436.35 878.216 436.557L878.034 439.63L877.991 440.406C877.835 443.213 877.679 446.281 877.532 449.533L877.496 450.35C877.188 457.297 876.962 464.149 876.851 470.61L876.829 471.989C876.652 484.009 876.902 493.57 877.685 499.768C877.711 499.974 877.91 500.121 878.13 500.096C878.35 500.072 878.507 499.886 878.481 499.68L878.404 499.042C877.699 492.982 877.467 483.907 877.621 472.607L877.63 471.999C877.724 465.573 877.938 458.732 878.235 451.774L878.37 448.756C878.456 446.879 878.545 445.066 878.636 443.334L878.813 440.052L879.016 436.601C879.029 436.395 878.861 436.217 878.64 436.205Z"
            fill="#0F5299"
        />
        <path
            d="M887.609 445.732C887.422 445.732 887.266 445.868 887.236 446.047L887.23 446.309L887.205 450.86L887.165 455.715C887.145 457.854 887.121 459.972 887.094 462.033L887.039 465.77C886.927 472.711 886.777 477.894 886.584 480.643C886.428 482.89 884.827 484.455 882.208 485.457C881.221 485.836 880.159 486.104 879.097 486.281C878.8 486.331 878.519 486.37 878.26 486.4L877.836 486.444C877.772 486.449 877.723 486.453 877.69 486.455C877.482 486.467 877.324 486.645 877.336 486.853C877.348 487.061 877.526 487.22 877.734 487.207L877.972 487.189C878.024 487.184 878.084 487.178 878.149 487.171C878.473 487.137 878.833 487.089 879.221 487.025C880.329 486.84 881.438 486.559 882.477 486.162C885.341 485.065 887.155 483.292 887.336 480.696L887.394 479.774C887.571 476.652 887.709 471.361 887.813 464.487L887.847 462.043C887.875 459.981 887.898 457.862 887.918 455.722L887.961 450.383L887.984 446.111C887.985 445.903 887.817 445.733 887.609 445.732Z"
            fill="#0F5299"
        />
        <path
            d="M853.612 444.051C853.404 444.05 853.234 444.166 853.234 444.309C853.234 444.452 853.402 444.568 853.61 444.569L872.23 444.596L900.095 444.611C906.298 444.61 911.543 444.604 915.633 444.592C915.841 444.592 916.009 444.475 916.008 444.332C916.007 444.189 915.838 444.074 915.63 444.074L904.311 444.091H888.084L853.612 444.051Z"
            fill="#0F5299"
        />
        <path
            d="M906.233 444.055C906.032 444.086 905.894 444.279 905.924 444.487L906.007 445.013C906.025 445.119 906.045 445.232 906.066 445.352C906.187 446.035 906.337 446.795 906.519 447.614C907.038 449.955 907.703 452.296 908.531 454.483C910.444 459.537 912.922 463.019 916.077 464.205C916.267 464.277 916.478 464.175 916.547 463.977C916.616 463.78 916.517 463.562 916.327 463.49C913.422 462.398 911.057 459.074 909.214 454.206C908.401 452.056 907.745 449.75 907.234 447.444C907.084 446.771 906.957 446.138 906.85 445.557L906.758 445.043L906.649 444.375C906.623 444.188 906.469 444.053 906.292 444.051L906.233 444.055Z"
            fill="#0F5299"
        />
        <path
            d="M911.763 444.639C911.568 444.716 911.474 444.934 911.553 445.125L911.736 445.589C911.786 445.718 911.839 445.861 911.897 446.017L912.086 446.532C912.312 447.158 912.555 447.866 912.813 448.656C913.763 451.561 914.713 454.96 915.599 458.822C917.274 466.114 918.522 474.181 919.17 482.938C919.185 483.144 919.368 483.298 919.578 483.284C919.788 483.269 919.946 483.09 919.931 482.884C919.281 474.089 918.027 465.986 916.344 458.659C915.502 454.99 914.603 451.736 913.7 448.921L913.541 448.429C913.206 447.404 912.894 446.514 912.615 445.762L912.45 445.326L912.261 444.844C912.181 444.653 911.959 444.561 911.763 444.639Z"
            fill="#0F5299"
        />
        <path
            d="M857.43 444.06C857.232 444.015 857.036 444.144 856.993 444.348L856.895 444.773L856.844 444.985C856.719 445.496 856.568 446.066 856.392 446.68C855.888 448.434 855.279 450.187 854.566 451.821C852.839 455.775 850.788 458.375 848.464 459C848.268 459.053 848.151 459.26 848.202 459.462C848.253 459.664 848.454 459.785 848.65 459.732C851.251 459.032 853.424 456.277 855.235 452.131C855.964 450.463 856.583 448.679 857.096 446.895C857.245 446.375 857.377 445.885 857.49 445.435L857.631 444.855C857.667 444.702 857.694 444.586 857.71 444.51C857.753 444.306 857.628 444.104 857.43 444.06Z"
            fill="#0F5299"
        />
        <path
            d="M884.619 439.973C884.568 440.744 883.775 441.312 882.849 441.243C881.922 441.174 881.211 440.492 881.261 439.722C881.312 438.952 882.105 438.382 883.031 438.452C883.959 438.521 884.67 439.202 884.619 439.973Z"
            fill="#0F5299"
        />
        <path
            d="M899.864 725.974C899.864 725.974 914.654 735.323 930.393 727.044C931.267 731.577 929.58 735.674 914.648 735.496C906.593 735.401 902.95 733.026 900.704 731.544C898.388 730.018 899.274 727.285 899.864 725.974Z"
            fill="#96A7CA"
        />
        <path
            d="M927.677 586.673C930.932 608.571 926.857 645.725 925.037 672.739C924.143 685.99 924.571 694.014 924.571 694.014C924.571 694.014 927.307 711.39 926.348 714.11C924.832 718.41 895.406 724.656 906.74 700.016C904.521 662.175 900.633 641.504 896.81 608.125C895.976 600.858 895.614 596.906 894.813 589.958C894.813 589.958 892.565 567.325 909.104 564.745C925.642 562.164 927.677 586.673 927.677 586.673Z"
            fill="#FFC999"
        />
        <path
            d="M925.668 570.944C925.028 528.602 925.991 514.701 920.903 480.934C920.903 480.934 899.874 455.682 888.771 496.414C886.759 503.794 888.812 528.25 892.611 571.304C892.611 571.304 893.411 594.844 911.395 595.372C929.959 595.919 925.668 570.944 925.668 570.944Z"
            fill="#FFC999"
        />
        <path
            d="M926.689 730.358C934.378 729.625 930.34 718.453 927.641 706.713C926.819 703.133 927.717 704.076 926.706 700.817C925.289 696.245 905.52 697.741 905.084 701.118C904.261 707.487 902.515 712.795 902.515 712.795C899.039 717.763 897.654 725.519 901.523 728.29C911.603 735.509 926.689 730.358 926.689 730.358Z"
            fill="#0F5299"
        />
        <path
            d="M916.489 705.801C914.541 705.769 912.456 705.879 910.387 706.082L909.647 706.159C909.408 706.186 909.178 706.212 908.958 706.239L908.029 706.361C908.008 706.364 907.988 706.367 907.971 706.37C907.737 706.405 907.573 706.638 907.606 706.89C907.638 707.142 907.855 707.318 908.089 707.283L908.736 707.195L909.388 707.116C909.728 707.077 910.088 707.038 910.465 707.001C912.506 706.801 914.561 706.692 916.476 706.724C919.503 706.774 921.85 707.174 923.221 707.981C923.429 708.103 923.689 708.021 923.803 707.798C923.916 707.574 923.84 707.294 923.632 707.172C922.106 706.273 919.646 705.854 916.489 705.801Z"
            fill="#96A7CA"
        />
        <path
            d="M923.466 476.07C923.466 476.07 902.311 456.823 882.939 497.453C886.236 520.831 888.981 546.949 888.981 546.949C888.981 546.949 908.907 552.669 928.338 544.324C925.21 487.334 923.466 476.07 923.466 476.07Z"
            fill="#0195D6"
        />
        <path
            d="M918.585 472.075C918.382 472.094 918.233 472.277 918.251 472.484L919.306 484.807L921.039 505.597L924.24 544.593C924.256 544.8 924.435 544.954 924.637 544.936C924.84 544.919 924.991 544.737 924.974 544.53L922.722 517.029L919.931 483.449C919.549 478.927 919.23 475.212 918.985 472.417C918.968 472.231 918.822 472.088 918.645 472.075H918.585Z"
            fill="#0F5299"
        />
        <path
            d="M926.6 536.15C926.489 535.969 926.257 535.916 926.081 536.03C922.659 538.255 918.361 539.649 913.387 540.323C907.76 541.084 901.731 540.885 895.942 540.091C894.961 539.957 894.059 539.814 893.249 539.67L892.908 539.608C892.658 539.562 892.432 539.519 892.231 539.479L891.802 539.39C891.6 539.345 891.4 539.478 891.356 539.687C891.312 539.895 891.441 540.101 891.644 540.146L891.939 540.208L892.413 540.301C892.528 540.323 892.649 540.346 892.776 540.369L893.478 540.494C894.202 540.618 894.993 540.741 895.843 540.858C901.692 541.66 907.783 541.861 913.485 541.089C918.559 540.402 922.958 538.975 926.483 536.683C926.658 536.569 926.71 536.33 926.6 536.15Z"
            fill="#1D39C4"
        />
        <path
            d="M872.819 497.891C872.631 497.806 872.409 497.889 872.324 498.078C872.247 498.248 872.308 498.444 872.458 498.544L872.511 498.574L883.94 503.736L888.815 547.107C888.83 547.244 888.919 547.36 889.044 547.411L889.099 547.429L889.478 547.516L890.086 547.646C890.233 547.677 890.388 547.708 890.551 547.741C891.712 547.974 893.026 548.206 894.468 548.423C901.165 549.431 908.082 549.763 914.551 549.013C919.995 548.382 924.777 547.007 928.71 544.77C928.89 544.668 928.953 544.439 928.85 544.259C928.748 544.079 928.52 544.016 928.34 544.119C924.503 546.3 919.816 547.649 914.465 548.269C908.071 549.01 901.217 548.681 894.58 547.682C893.309 547.491 892.139 547.288 891.087 547.083L890.698 547.006C890.457 546.958 890.233 546.912 890.028 546.868L889.53 546.759L884.66 503.441C884.648 503.331 884.589 503.234 884.499 503.173L884.442 503.141L872.819 497.891Z"
            fill="#0F5299"
        />
        <path
            d="M925.678 720.929C925.464 720.926 925.284 721.077 925.251 721.278L925.245 721.34C925.244 721.412 925.202 721.584 925.068 721.828C924.823 722.273 924.376 722.73 923.666 723.169C922.331 723.994 920.265 724.628 917.332 724.98C913.472 725.442 910.038 724.857 907.103 723.599C906.322 723.263 905.638 722.905 905.058 722.548C904.906 722.454 904.771 722.367 904.651 722.285L904.415 722.119C904.396 722.104 904.381 722.093 904.37 722.085C904.187 721.94 903.919 721.969 903.772 722.149C903.624 722.329 903.654 722.592 903.837 722.737L903.985 722.846L904.04 722.885C904.2 722.998 904.388 723.122 904.605 723.256C905.22 723.634 905.941 724.012 906.762 724.364C909.83 725.68 913.416 726.291 917.435 725.809C920.484 725.444 922.668 724.773 924.12 723.876C924.951 723.363 925.501 722.8 925.817 722.225C926.019 721.857 926.094 721.554 926.097 721.353C926.101 721.122 925.913 720.932 925.678 720.929Z"
            fill="#96A7CA"
        />
        <path
            d="M915.066 435.644L886.218 436.05L860.5 436.45C857.322 436.506 855.341 436.549 854.717 436.575C854.509 436.583 854.347 436.758 854.356 436.965C854.365 437.173 854.541 437.333 854.749 437.325L856.471 437.278C858.362 437.237 861.601 437.179 866.012 437.108L882.082 436.861L915.076 436.394C915.284 436.391 915.451 436.221 915.448 436.014C915.445 435.806 915.274 435.641 915.066 435.644Z"
            fill="#0F5299"
        />
        <path d="M355.845 686.651H404.047V676.562H355.845V686.651Z" fill="#0195D6" />
        <path d="M357.042 576.235L344.076 735.412H355.209L368.176 576.235H357.042Z" fill="#0195D6" />
        <path d="M409.966 735.412L397 576.235H408.133L421.1 735.412H409.966Z" fill="#0195D6" />
        <path
            d="M337.81 575.955C337.81 583.588 343.997 589.775 351.629 589.775H408.821C416.453 589.775 422.641 583.588 422.641 575.955C422.641 568.323 416.453 562.136 408.821 562.136H351.629C343.997 562.136 337.81 568.323 337.81 575.955Z"
            fill="#0F5299"
        />
        <path
            d="M455.096 615.562C455.103 615.285 450.846 684.145 450.127 689.044C448.168 702.411 446.372 704.018 452.944 708.621C454.628 709.8 457.522 709.184 459.922 712.869C466.489 722.953 477.265 729.714 479.472 724.811C481.119 720.156 464.791 702.104 464.396 691.918C463.987 681.335 488.816 603.505 482.651 596.624C476.485 589.743 465.819 559.729 455.096 615.562Z"
            fill="#FFC999"
        />
        <path
            d="M448.042 709.772C448.042 709.772 446.782 702.11 449.628 693.376C449.628 693.376 454.892 699.816 459.299 706.668C464.388 714.579 465.826 715.155 465.826 715.155C473.191 718.693 475.594 714.55 475.594 714.55C475.594 714.55 478.995 720.569 486.063 727.557C492.392 733.816 464.612 730.769 461.873 723.264C459.135 715.758 454.761 710.959 454.761 710.959L451.017 721.16L448.397 720.695L448.042 709.772Z"
            fill="#253368"
        />
        <path
            d="M500.627 570.449L470.993 685.53L430.39 675.124C430.39 675.124 444.253 612.347 459.514 560.251C459.514 560.251 465.625 532.551 487.194 538.365C508.763 544.179 500.627 570.449 500.627 570.449Z"
            fill="#A3B5D6"
        />
        <path
            d="M476.786 536.759C433.579 531.373 401.671 530.913 391.679 533.431C391.679 533.431 370.936 537.615 374.828 553.673C379.576 573.267 401.879 573.595 401.879 573.595L474.12 579.293C479.863 579.807 498.767 582.005 499.856 559.68C500.885 538.622 477.728 536.877 476.786 536.759Z"
            fill="#A3B5D6"
        />
        <path
            d="M456.134 438.357C456.134 438.357 421.71 481.945 417.469 488.38C405.807 506.075 427.951 513.876 434.77 504.265C439.049 498.234 444.582 484.505 450.539 473.179C458.935 457.213 464.579 445.291 464.579 445.291L456.134 438.357Z"
            fill="#FFC999"
        />
        <path
            d="M367.485 368.376C367.485 368.376 396.649 366.382 400.632 382.472C402.679 390.748 396.737 401.674 401.238 403.281C418.83 409.563 403.177 417.576 414.727 423.236C431.905 431.655 427.847 453.946 412.309 456.223C396.214 458.582 409.03 479.243 380.363 479.272C364.208 479.289 358.948 476.961 346.807 474.106C334.666 471.252 321.294 444.36 331.365 427.196C337.587 416.368 345.735 415.353 346.882 399.519C348.03 383.687 350.348 373.6 357.909 373.084C359.663 368.646 367.485 368.376 367.485 368.376Z"
            fill="#253368"
        />
        <path
            d="M392.609 405.015C392.647 404.69 393.057 404.62 393.187 404.917C394.342 407.534 397.198 414.636 394.546 415.325C391.556 416.103 392.257 407.983 392.609 405.015Z"
            fill="white"
        />
        <path
            d="M367.055 433.806C368.226 419.663 368.389 405.289 368.389 405.289L386.848 413.399L387.233 427.394C386.96 432.59 382.466 436.526 377.316 436.081L367.055 433.806Z"
            fill="#F4B784"
        />
        <path
            d="M370.714 385.507C370.714 385.507 371.275 380.035 375.314 381.543C378.203 382.621 377.181 381.376 377.374 379.89C378.091 374.37 382.173 385.784 390.733 386.26C392.517 392.469 397.915 413.831 385.149 416.711C379.854 417.904 371.744 416.07 367.675 410.603C364.665 406.559 364.961 401.361 366.551 399.942C371.791 395.27 370.843 392.137 370.714 385.507Z"
            fill="#FFC999"
        />
        <path
            d="M382.749 402.487C382.749 402.487 384.294 401.961 386.672 400.76C384.226 395.129 383.178 392.011 383.178 392.011L383.274 388.475"
            stroke="#DD936F"
            stroke-width="0.693"
            stroke-linecap="round"
            stroke-linejoin="round"
        />
        <path
            d="M386.112 403.607C386.112 403.607 383.459 404.131 379.386 404.967C379.386 404.967 380.221 407.213 382.618 406.949C386.168 406.56 386.112 403.607 386.112 403.607Z"
            fill="white"
        />
        <path
            fill-rule="evenodd"
            clip-rule="evenodd"
            d="M386.112 403.607C386.112 403.607 383.459 404.131 379.386 404.967C379.386 404.967 380.221 407.213 382.618 406.949C386.168 406.56 386.112 403.607 386.112 403.607Z"
            stroke="#B53026"
            stroke-width="0.6777"
            stroke-linecap="round"
            stroke-linejoin="round"
        />
        <path
            d="M390.035 386.428C390.035 386.428 387.473 385.169 382.749 389.035"
            stroke="#253368"
            stroke-width="0.9027"
            stroke-linecap="round"
            stroke-linejoin="round"
        />
        <path
            d="M378.265 389.688C378.265 389.688 373.086 389.457 370.418 390.641"
            stroke="#253368"
            stroke-width="0.9027"
            stroke-linecap="round"
            stroke-linejoin="round"
        />
        <path
            d="M384.43 409.098L382.188 409.326"
            stroke="#DD936F"
            stroke-width="0.693"
            stroke-linecap="round"
            stroke-linejoin="round"
        />
        <path
            d="M358.175 405.25C355.755 400.082 360.889 399.123 360.889 399.123C360.889 399.123 362.282 404.533 364.813 409.041C359.708 410.178 358.175 405.25 358.175 405.25Z"
            fill="#FFC999"
        />
        <path
            d="M361.748 407.787C361.817 407.469 362.251 407.437 362.364 407.743C363.354 410.438 365.751 417.719 362.908 418.157C359.699 418.652 361.126 410.689 361.748 407.787Z"
            fill="white"
        />
        <path
            d="M377.704 396.229C377.436 394.873 376.353 393.921 375.287 394.101C374.221 394.282 373.573 395.527 373.841 396.882"
            stroke="#253368"
            stroke-width="0.9027"
            stroke-linecap="round"
            stroke-linejoin="round"
        />
        <path
            d="M390.035 393.429C389.684 391.677 388.877 391.129 387.963 391.309C387.049 391.489 386.494 392.729 386.724 394.079"
            stroke="#253368"
            stroke-width="0.9027"
            stroke-linecap="round"
            stroke-linejoin="round"
        />
        <path
            d="M434.539 495.048C434.539 495.048 422.307 456.429 419.11 449.466C411.39 432.653 399.11 433.312 394.195 442.66C388.271 453.931 417.302 503.405 417.302 503.405C417.302 503.405 420.656 510.328 428.942 507.901C438.738 505.032 434.539 495.048 434.539 495.048Z"
            fill="#FFC999"
        />
        <path
            d="M427.026 468.378C425.625 464.837 416.963 430.135 401.676 434.878C389.785 438.569 392.426 452.828 404.192 477.591L427.026 468.378Z"
            fill="white"
        />
        <path
            d="M362.69 505.055C371.658 507.229 394.233 505.765 396.898 504.629C399.561 503.494 396.556 497.19 396.556 497.19C412.804 455.96 409.135 439.538 407.711 436.473C405.787 432.328 390.396 437.056 390.036 432.051C389.95 430.849 389.565 427.534 389.371 425.894C389.306 425.345 388.855 424.928 388.302 424.899L367.631 423.786C367.001 423.751 366.463 424.224 366.432 424.85C366.342 426.698 366.057 430.311 365.199 431.732C362.915 435.515 350.68 430.281 344.907 437.932C334.59 451.608 352.915 479.921 360.668 497.016C360.668 497.016 357.946 501.171 362.69 505.055Z"
            fill="white"
        />
        <path
            d="M391.325 564.311L410.212 544.616C410.212 544.616 406.139 522.652 395.674 513.086L358.342 511.78C358.342 511.78 343.435 522.664 344.714 547.741L372.702 564.466L391.325 564.311Z"
            fill="#CCD7EE"
        />
        <path
            d="M358.087 511.985L396.2 512.901L395.252 506.756L359.348 505.615L358.087 511.985Z"
            fill="#CCD7EE"
        />
        <path
            d="M382.749 513.462C385.76 535.336 383.808 563.345 383.808 563.345"
            stroke="#A3B5D6"
            stroke-width="0.6777"
            stroke-linecap="round"
            stroke-linejoin="round"
        />
        <path
            d="M357.527 512.609L395.079 513.193"
            stroke="#A3B5D6"
            stroke-width="0.6777"
            stroke-linecap="round"
            stroke-linejoin="round"
        />
        <path
            d="M422.244 627.488C422.185 627.213 434.2 695.92 434.647 700.907C435.868 714.513 434.483 716.522 442.015 719.482C443.944 720.239 446.64 718.945 449.861 721.995C458.679 730.346 470.842 734.427 471.855 729.081C472.377 724.112 452.108 710.255 449.325 700.335C446.435 690.029 452.501 607.607 444.832 602.311C437.163 597.013 419.639 570.048 422.244 627.488Z"
            fill="#FFC999"
        />
        <path
            d="M437.295 721.916C437.295 721.916 434.272 714.803 434.981 705.707C434.981 705.707 441.607 710.709 447.496 716.307C454.297 722.772 455.829 722.997 455.829 722.997C463.812 724.707 465.171 720.149 465.171 720.149C465.171 720.149 469.887 725.176 478.394 730.291C486.009 734.871 458.319 738.365 453.896 731.746C449.473 725.128 444.098 721.505 444.098 721.505L442.86 732.23L440.206 732.388L437.295 721.916Z"
            fill="#253368"
        />
        <path
            d="M458.523 560.431L470.744 679.415L428.705 683.848C428.705 683.848 419.865 619.75 416.078 565.239C416.078 565.239 412.169 536.957 434.599 534.872C457.031 532.787 458.523 560.431 458.523 560.431Z"
            fill="#CCD7EE"
        />
        <path
            d="M432.505 533.151C387.29 526.478 373.115 526.563 362.571 528.962C362.571 528.962 341.366 533.658 345.07 550.562C349.59 571.191 372.325 571.253 372.325 571.253L428.701 577.616C434.716 578.291 456.172 579.711 456.172 557.697C456.172 535.617 433.489 533.296 432.505 533.151Z"
            fill="#CCD7EE"
        />
        <path
            d="M357.953 494.513C357.953 494.513 364.527 461.697 364.244 454.034C363.56 435.525 350.429 433.659 343.725 441.911C338.541 448.291 336.789 497.076 336.789 497.076C336.789 497.076 337.22 504.944 346.293 505.583C356.529 506.303 357.953 494.513 357.953 494.513Z"
            fill="#FFC999"
        />
        <path
            d="M350.028 434.434C341.048 436.278 338.723 445.932 337.91 470.965L361.61 474.788C361.664 470.955 376.075 431.671 348.139 434.793"
            fill="white"
        />
        <path
            d="M450.884 448.824C450.884 448.824 450.575 445.1 451.812 440.447C453.052 435.794 456.458 430.21 456.458 424.626C456.458 419.042 461.26 423.695 458.628 434.244C465.751 432.381 473.224 428.931 475.431 423.463C476.238 421.465 478.16 421.776 478.219 423.695C478.277 425.615 477.522 427.418 477.522 427.418C477.522 427.418 478.915 428.97 477.987 431.141C479.844 434.398 476.825 436.493 476.825 436.493C476.825 436.493 478.683 437.656 474.966 442.541C471.114 447.605 460.795 450.995 460.795 450.995L451.512 468.623L441.599 462.42L450.884 448.824Z"
            fill="#FFC999"
        />
        <path
            d="M459.296 433.873C459.296 433.873 461.292 439.53 458.974 442.28"
            stroke="#DD936F"
            stroke-width="0.6516"
            stroke-linecap="round"
            stroke-linejoin="round"
        />
        <path
            d="M477.47 435.999C477.47 435.999 475.589 432.706 474.647 433.412C473.706 434.117 474.647 437.645 474.647 437.645C474.647 437.645 472.059 442.114 468.53 442.114C465.002 442.114 459.356 443.055 458.414 445.643"
            stroke="#DD936F"
            stroke-width="0.6516"
            stroke-linecap="round"
            stroke-linejoin="round"
        />
        <path
            d="M478.591 430.949C478.591 430.949 476.367 427.168 475.477 428.587C474.588 430.005 476.367 433.313 476.367 433.313"
            stroke="#DD936F"
            stroke-width="0.6516"
            stroke-linecap="round"
            stroke-linejoin="round"
        />
        <path
            d="M473.546 435.555C472.241 437.094 471.021 438.02 469.062 438.918"
            stroke="#DD936F"
            stroke-width="0.6516"
            stroke-linecap="round"
            stroke-linejoin="round"
        />
        <path
            d="M474.667 432.752C474.667 432.752 471.781 435.519 468.502 436.675"
            stroke="#DD936F"
            stroke-width="0.6516"
            stroke-linecap="round"
            stroke-linejoin="round"
        />
        <path
            d="M474.668 429.39C474.668 429.39 471.488 432.336 467.942 433.874"
            stroke="#DD936F"
            stroke-width="0.6516"
            stroke-linecap="round"
            stroke-linejoin="round"
        />
        <path
            d="M466.26 432.191C466.26 432.191 469.624 439.924 468.111 442.28"
            stroke="#DD936F"
            stroke-width="0.6516"
            stroke-linecap="round"
            stroke-linejoin="round"
        />
        <path
            d="M478.03 427.042C478.03 427.042 476.704 424.604 475.98 424.936C474.776 425.491 475.379 427.708 475.379 427.708"
            stroke="#DD936F"
            stroke-width="0.6516"
            stroke-linecap="round"
            stroke-linejoin="round"
        />
        <path
            d="M395.302 511.781H442.21C443.525 511.781 444.689 510.923 445.089 509.662L461.072 459.139C461.691 457.175 460.238 455.172 458.193 455.172H411.284C409.969 455.172 408.803 456.029 408.404 457.292L392.422 507.814C391.801 509.776 393.255 511.781 395.302 511.781Z"
            fill="#4E5C93"
        />
        <path
            d="M398.664 511.781H445.572C446.888 511.781 448.051 510.923 448.451 509.662L464.434 459.139C465.055 457.175 463.6 455.172 461.555 455.172H414.647C413.331 455.172 412.165 456.029 411.768 457.292L395.785 507.814C395.163 509.776 396.618 511.781 398.664 511.781Z"
            fill="#253369"
        />
        <path
            d="M414.437 495.581C414.437 495.581 357.007 484.263 349.353 484.317C333.821 484.427 332.609 503.839 346.169 506.173C363.624 509.176 414.696 507.246 414.696 507.246L414.437 495.581Z"
            fill="#FFC999"
        />
        <path
            d="M422.315 507.256C422.315 507.256 408.113 508.082 404.845 502.218C401.884 496.906 408.115 492.267 408.115 492.267C408.115 492.267 413.404 489.2 420.01 487.453C424.337 486.309 432.231 482.903 433.43 484.966C434.995 487.658 426.346 489.818 426.037 492.05C425.411 496.573 439.39 494.612 441.838 495.512C446.621 497.273 439.359 506.397 422.315 507.256Z"
            fill="#FFC999"
        />
        <path
            d="M428.146 498.948C428.146 498.948 435.2 500.195 441.598 498.408"
            stroke="#DD936F"
            stroke-width="0.693"
            stroke-linecap="round"
            stroke-linejoin="round"
        />
        <path
            d="M440.478 501.131C440.478 501.131 435.303 502.782 427.026 502.076"
            stroke="#DD936F"
            stroke-width="0.693"
            stroke-linecap="round"
            stroke-linejoin="round"
        />
        <path
            d="M424.785 505.184C424.785 505.184 428.322 505.702 434.873 504.779"
            stroke="#DD936F"
            stroke-width="0.693"
            stroke-linecap="round"
            stroke-linejoin="round"
        />
        <path
            d="M441.038 495.315C441.038 495.315 429.405 496.396 427.143 493.668C424.878 490.941 428.829 489.744 431.168 488.101C433.506 486.457 434.21 486.182 433.735 484.877"
            stroke="#DD936F"
            stroke-width="0.693"
            stroke-linecap="round"
            stroke-linejoin="round"
        />
        <path
            d="M361.695 474.788L364.11 453.977C364.11 453.977 365.182 444.803 361.45 442.28"
            stroke="#CCD7EE"
            stroke-width="0.6507"
            stroke-linecap="round"
            stroke-linejoin="round"
        />
        <path
            d="M384.99 433.123L369.857 433.502"
            stroke="#CCD7EE"
            stroke-width="0.6507"
            stroke-linecap="round"
            stroke-linejoin="round"
        />
        <path
            d="M384.43 435.15L374.902 435.958"
            stroke="#CCD7EE"
            stroke-width="0.6507"
            stroke-linecap="round"
            stroke-linejoin="round"
        />
        <path
            d="M406.479 445.644L405.168 449.356L408.531 456.853"
            stroke="#CCD7EE"
            stroke-width="0.6507"
            stroke-linecap="round"
            stroke-linejoin="round"
        />
        <path
            d="M397.321 492.724L352.482 484.316"
            stroke="#DD936F"
            stroke-width="0.693"
            stroke-linecap="round"
            stroke-linejoin="round"
        />
        <path
            d="M406.849 529.716L367.616 526.354"
            stroke="#A3B5D6"
            stroke-width="0.6777"
            stroke-linecap="round"
            stroke-linejoin="round"
        />
        <path
            d="M398.515 737C395.3 737 392.767 735.062 393.017 732.793L413.945 543H434L404.457 733.523C404.15 735.502 401.788 737 398.975 737"
            fill="#F8AC76"
        />
        <path
            d="M971.351 737C974.644 737 977.239 735.062 976.983 732.793L955.544 543H935L965.263 733.523C965.578 735.502 967.997 737 970.879 737"
            fill="#F8AC76"
        />
        <path
            d="M966.151 542.607H402.424C400.377 542.607 398.462 541.789 397.304 540.421C394.469 537.074 397.421 532.519 402.424 532.519H966.151C971.153 532.519 974.105 537.074 971.271 540.421C970.112 541.789 968.198 542.607 966.151 542.607Z"
            fill="#F8AC76"
        />
        <path d="M952.648 549.894H417.288L418.115 542.607H951.82L952.648 549.894Z" fill="#E66407" />
        <path
            d="M716.385 505.615H584.64C581.792 505.615 579.423 503.444 579.201 500.63L572.208 411.674C571.975 408.698 574.22 406.098 577.224 405.866C577.365 405.855 577.506 405.849 577.647 405.849H709.392C712.24 405.849 714.609 408.021 714.831 410.835L721.824 499.791C722.058 502.767 719.812 505.367 716.808 505.599C716.667 505.61 716.526 505.615 716.385 505.615Z"
            fill="#A3B5D6"
        />
        <path
            d="M714.141 505.615H582.963C579.767 505.615 577.109 503.18 576.86 500.024L569.968 412.382C569.706 409.044 572.225 406.128 575.595 405.868C575.754 405.856 575.912 405.849 576.071 405.849H706.531C709.727 405.849 712.385 408.285 712.634 411.441L719.581 499.791C719.815 502.767 717.569 505.367 714.564 505.599C714.423 505.61 714.282 505.615 714.141 505.615Z"
            fill="#CCD7EE"
        />
        <path
            d="M630.925 457.09C631.923 461.095 635.69 463.604 639.337 462.695C642.985 461.786 645.132 457.802 644.134 453.797C643.135 449.792 639.369 447.282 635.721 448.192C632.074 449.101 629.926 453.085 630.925 457.09Z"
            fill="#E4EBF7"
        />
        <path
            d="M687.428 418.74H591.471C590.729 418.74 590.127 419.342 590.127 420.084V420.199C590.127 420.941 590.729 421.543 591.471 421.543H687.428C688.17 421.543 688.772 420.941 688.772 420.199V420.084C688.772 419.342 688.17 418.74 687.428 418.74Z"
            fill="#A3B5D6"
        />
        <path
            d="M632.119 479.272H650.202C651.693 479.272 652.901 480.486 652.901 481.983C652.901 482.183 652.879 482.383 652.835 482.578L641.768 531.958H618.151L629.486 481.388C629.763 480.151 630.856 479.272 632.119 479.272Z"
            fill="#A3B5D6"
        />
        <path
            d="M664.895 528.034H614.004C612.889 528.034 611.986 528.938 611.986 530.052V530.5C611.986 531.615 612.889 532.518 614.004 532.518H664.895C666.01 532.518 666.913 531.615 666.913 530.5V530.052C666.913 528.938 666.01 528.034 664.895 528.034Z"
            fill="#CCD7EE"
        />
        <path
            d="M259.411 659.885C261.423 633.823 266.949 615.323 275.988 604.384C284.357 594.257 291.607 588.182 297.739 586.161C298.16 586.022 298.613 586.251 298.752 586.671C298.804 586.829 298.806 587 298.756 587.159C295.094 598.997 292.025 609.417 289.548 618.418C286.973 627.774 282.868 644.693 277.232 669.177L272.471 690.595H258.899L259.411 659.885Z"
            fill="#92DADC"
        />
        <path
            d="M261.753 668.383C261.572 660.545 261.891 655.231 262.711 652.441C263.198 650.78 269.907 645.982 270.009 645.044C270.11 644.101 263.879 649.484 262.711 648.785C260.873 647.685 263.76 640.662 263.945 639.982C264.269 638.79 270.818 637.529 273.8 635.607C275.388 634.583 274.523 633.41 275.524 632.402C277.591 630.324 280.592 628.693 280.346 628.732C279.444 628.877 272.074 634.106 268.25 635.607C265.484 636.692 265.775 634.421 265.959 633.592C267.125 628.326 270.661 623.781 271.447 621.651C271.631 621.154 274.265 619.724 277.241 618.569C279.191 617.813 281.88 615.351 281.998 615.091C282.126 614.808 276.404 616.843 273.8 617.271C271.92 617.58 272.906 616.345 273.001 616.152C274.32 613.471 275.733 611.222 277.241 609.404C284.727 600.374 290.24 595.163 293.779 593.771C290.32 605.099 287.911 613.193 286.554 618.052C286.395 618.621 279.199 622.796 279.045 623.354C278.872 623.98 285.73 621.044 285.541 621.763C284.296 626.491 282.719 633.122 281.088 640.216C280.884 641.104 277.446 641.283 277.241 642.183C277.11 642.757 280.212 644.048 280.08 644.625C277.69 655.151 275.308 666.04 273.8 672.849C271.858 681.618 270.594 687.508 270.009 690.523L260.703 690.595L261.491 673.919C268.083 665.624 271.402 660.994 271.447 660.031C271.489 659.149 268.257 661.933 261.753 668.383Z"
            fill="#4DB1B3"
        />
        <path
            d="M270.622 671.673C273.914 656.744 278.693 646.713 284.96 641.582C288.876 638.375 292.197 635.714 294.924 633.598C296.561 632.329 300.047 627.923 299.192 630.38C297.16 636.216 292.845 642.757 289.15 650.185C288.011 652.473 284.71 659.509 282.854 663.533C281.413 666.655 279.95 672.369 278.465 680.675L277.241 690.507L267.594 690.654L270.622 671.673Z"
            fill="#92DADC"
        />
        <path
            d="M273.492 669.091C275.176 667.571 276.278 666.713 276.8 666.517C278.457 665.894 280.246 663.522 280.388 662.824C280.507 662.238 278.283 665.152 276.8 665.427C275.408 665.685 273.409 666.998 273.492 666.517C274.746 659.271 277.658 651.924 282.079 648.314C283.109 647.473 284.191 648.758 288.466 646.393C288.774 646.222 285.831 645.389 286.228 645.037C292.887 639.117 296.341 634.825 295.988 635.626C293.779 640.638 290.414 646.55 286.966 653.469C285.903 655.601 283.763 661.679 282.031 665.427C280.686 668.336 279.322 673.659 277.938 681.398L276.8 690.558L268.855 690.26L270.719 681.398C273.679 679.658 275.256 678.438 275.451 677.738C275.742 676.688 271.087 679.888 270.719 677.738C270.474 676.305 271.399 673.422 273.492 669.091Z"
            fill="#4DB1B3"
        />
        <path
            d="M247.011 668.387C244.534 639.268 239.579 620.222 232.147 611.248C220.999 597.789 216.221 593.771 215.217 594.238C212.784 595.368 214.822 608.594 217.998 620.106C221.173 631.618 232.213 650.75 235.977 668.387C238.486 680.144 240.339 687.479 241.534 690.389L248.054 690.461L247.011 668.387Z"
            fill="#92DADC"
        />
        <path
            d="M247.12 670.207C244.887 657.469 243.217 649.532 242.111 646.393C241.271 644.01 237.274 644.986 237.029 643.785C236.575 641.56 241.294 640.847 241.039 639.701C240.646 637.936 240.32 636.562 240.059 635.58C239.787 634.554 231.811 634.543 231.613 633.742C231.438 633.031 240.234 634.415 240.059 633.742C238.041 625.964 236.062 620.713 234.123 617.99C233.774 617.499 228.915 616.458 228.554 616.022C227.944 615.285 231.852 615.154 231.271 614.473C227.342 609.872 222.443 604.075 216.573 597.083C215.64 602.877 216.563 610.681 219.344 620.497C219.431 620.804 218.353 622.098 220.586 622.954C222.894 623.839 228.487 624.338 228.554 624.649C228.814 625.852 220.268 624.894 220.586 626.05C221.435 629.128 222.899 632.802 224.632 636.863C224.955 637.622 230.931 637.39 231.271 638.174C231.55 638.818 225.899 638.715 226.137 639.383C226.46 640.288 227.161 642.938 228.554 643.941C229.323 644.495 231.413 643.398 231.623 643.941C231.93 644.731 229.86 645.581 230.125 646.393C232.647 654.127 235.428 662.704 237.029 670.207C239.324 680.96 241.018 687.668 242.111 690.33L248.073 690.395L247.12 670.207Z"
            fill="#4DB1B3"
        />
        <path
            d="M258.898 690.26H248.054C241.339 640.353 239.146 608.279 241.474 594.037C243.58 581.153 247.203 567.821 252.343 554.044C252.653 553.214 253.576 552.792 254.406 553.102C254.875 553.276 255.235 553.66 255.38 554.138C260.58 571.262 263.672 582.618 264.655 588.206C265.787 594.637 266.182 599.896 265.839 603.984C265.315 610.252 264.527 624.997 262.967 644.434C262.273 653.083 260.917 668.358 258.898 690.26Z"
            fill="#92DADC"
        />
        <path
            d="M257.933 690.453H248.203C249.627 690.303 250.324 689.719 250.294 688.702C250.224 686.289 247.929 680.946 247.879 679.591C247.821 677.98 251.721 677.178 251.657 675.71C251.584 674.058 248.088 675.413 247.879 673.919C246.565 664.491 246.302 655.355 245.495 653.323C243.88 649.256 250.456 650.192 250.294 648.576C250.16 647.232 245.726 649.256 245.495 648.576C243.88 643.835 251.998 646.76 251.657 643.835C251.42 641.801 243.88 645.365 243.88 642.349C243.88 638.314 243.741 634.008 243.547 629.741C243.54 629.585 247.879 628.161 250.294 630.948C251.891 632.791 251.513 629.611 252.505 628.331C253.485 627.068 255.839 627.718 256.736 627.28C258.124 626.603 251.657 627.28 253.554 624.648C254.721 623.03 251.402 625.427 248.073 626.17C245.882 626.658 243.307 624.933 243.281 624.464C243.099 621.116 242.902 617.876 242.733 614.906C242.488 610.588 242.3 606.838 242.3 604.15C242.3 594.237 245.346 598.253 246.006 593.37C246.135 592.408 243.663 588.659 243.88 587.669C244.046 586.906 245.831 586.136 246.006 585.357C246.174 584.608 253.378 588.433 253.554 587.669C253.766 586.745 245.783 583.381 246.006 582.435C246.824 578.962 248.972 571.233 252.45 559.248C252.604 558.716 253.16 558.41 253.692 558.564C254.045 558.667 254.314 558.955 254.392 559.315C255.271 563.367 255.794 565.794 255.962 566.597C256.078 567.152 253.154 569.54 253.267 570.086C253.395 570.704 256.56 569.479 256.684 570.086C259.136 582.074 260.839 591.958 261.795 599.739C261.854 600.223 259.119 603.186 255.962 604.15C252.165 605.309 247.823 604.485 247.879 605.024C247.924 605.452 252.685 606.567 256.684 606.368C259.769 606.215 262.33 604.713 262.357 605.024C262.856 610.703 262.827 614.9 262.27 617.613C261.296 622.363 262.636 632.196 261.795 648.576C261.708 650.261 260.501 654.045 260.357 656.355C260.309 657.135 253.624 658.236 253.554 659.293C253.492 660.222 260.233 657.675 260.357 659.293C260.544 661.721 260.102 669.077 258.898 677.908C258.764 678.893 256.839 678.537 256.736 679.591C256.674 680.22 258.863 680.786 258.898 681.628C258.934 682.484 256.853 683.881 258.605 685.755C259.398 686.603 258.421 687.563 257.933 688.702C257.778 689.062 257.778 689.646 257.933 690.453Z"
            fill="#4DB1B3"
        />
        <path
            d="M243.88 690.795H232.616C228.32 671.824 223.794 659.73 219.039 654.511C211.905 646.684 213.112 633.581 209.8 627.048C206.489 620.514 214.22 628.335 219.039 638.374C223.858 648.413 227.726 655.713 235.127 663.733C240.061 669.079 242.979 678.1 243.88 690.795Z"
            fill="#92DADC"
        />
        <path
            d="M242.059 690.789H232.154C227.593 671.19 223.221 659.098 219.039 654.512C214.62 649.666 213.376 641.427 212.232 634.369C211.752 631.408 209.512 625.427 210.438 626.246C211.752 627.408 210.502 626.167 212.232 628.825C212.746 629.615 213.561 629.384 213.994 630.823C214.28 631.777 214.196 634.483 214.479 635.033C214.586 635.24 215.068 632.584 215.174 632.772C216.525 635.175 219.481 642.331 221.076 645.652C221.799 647.157 217.692 645.492 218.5 647.102C218.772 647.644 221.332 646.168 221.652 646.683C223.44 649.57 225.265 653.757 226.957 656.997C227.095 657.262 224.335 657.471 224.471 657.722C224.595 657.949 227.614 658.219 227.736 658.433C228.086 659.048 228.428 659.604 228.762 660.08C229.037 660.473 226.153 662.54 226.44 662.931C226.83 663.461 229.037 660.473 230.812 662.844C232.588 665.216 228.088 665.162 228.678 665.853C229.269 666.547 232.154 663.532 234.363 667.005C235.493 668.782 236.512 670.717 237.42 672.81C237.771 673.619 234.045 674.183 234.363 675.039C234.514 675.446 238.494 674.553 238.649 675.039C239.306 677.107 240.443 682.357 242.059 690.789Z"
            fill="#4DB1B3"
        />
        <path
            d="M260.803 690.259L261.491 679.169C268.706 674.897 270.195 673.501 265.959 674.98C261.722 676.46 260.233 676.106 261.491 673.918C263.976 671.141 265.642 669.228 266.49 668.176C270.008 663.816 271.451 662.44 272.035 664.575C272.309 665.579 270.837 671.954 269.168 681.344C268.819 683.311 268.457 686.283 268.083 690.259H260.803Z"
            fill="#4DB1B3"
        />
        <path
            d="M283.039 730.992H225.197C224.455 730.992 223.852 730.39 223.852 729.647V683.576C223.852 682.834 224.455 682.23 225.197 682.23H283.039C283.782 682.23 284.384 682.834 284.384 683.576V729.647C284.384 730.39 283.782 730.992 283.039 730.992Z"
            fill="#0F5299"
        />
        <path
            d="M775.87 516.825H875.412V532.519H775.87C771.413 532.519 767.799 529.006 767.799 524.672C767.799 520.338 771.413 516.825 775.87 516.825Z"
            fill="#C5284C"
        />
        <path
            d="M825.641 516.825H875.412V532.519H825.641C821.183 532.519 817.57 529.006 817.57 524.672C817.57 520.338 821.183 516.825 825.641 516.825Z"
            fill="#AD193B"
        />
        <path
            d="M826.987 519.44H875.411V529.903H826.987C824.015 529.903 821.604 527.561 821.604 524.672C821.604 521.783 824.015 519.44 826.987 519.44Z"
            fill="#E9E9E9"
        />
        <path
            d="M771.947 501.132H871.489V516.825H771.947C767.49 516.825 763.876 513.312 763.876 508.979C763.876 504.645 767.49 501.132 771.947 501.132Z"
            fill="#8EA0C1"
        />
        <path
            d="M821.718 501.132H871.489V516.825H821.718C817.26 516.825 813.646 513.312 813.646 508.979C813.646 504.645 817.26 501.132 821.718 501.132Z"
            fill="#4E5C93"
        />
        <path
            d="M823.063 503.747H871.489V514.209H823.063C820.092 514.209 817.683 511.867 817.683 508.978C817.683 506.089 820.092 503.747 823.063 503.747Z"
            fill="#E9E9E9"
        />
        <path
            d="M1136 263H962C959.791 263 958 264.791 958 267V401C958 403.209 959.791 405 962 405H1136C1138.21 405 1140 403.209 1140 401V267C1140 264.791 1138.21 263 1136 263Z"
            fill="#E4EBF7"
        />
        <path
            d="M973.098 388C971.939 388 971 387.365 971 386.583V304.417C971 303.635 971.939 303 973.098 303H1124.9C1126.06 303 1127 303.635 1127 304.417V386.583C1127 387.365 1126.06 388 1124.9 388H973.098Z"
            fill="white"
        />
        <path
            d="M1082.98 353.509V375.894C1082.98 377.158 1081.95 378.193 1080.7 378.193H1038.02C1036.77 378.193 1035.74 377.158 1035.74 375.894V353.509C1035.74 352.244 1036.77 351.21 1038.02 351.21H1080.7C1081.95 351.21 1082.98 352.244 1082.98 353.509Z"
            fill="#FFC53D"
        />
        <path
            d="M1115.35 339.557C1115.35 340.821 1114.33 341.856 1113.08 341.856H1038.02C1036.76 341.856 1035.74 340.821 1035.74 339.557V317.171C1035.74 315.907 1036.76 314.873 1038.02 314.873H1113.08C1114.33 314.873 1115.35 315.907 1115.35 317.171V339.557Z"
            fill="#4DB1B3"
        />
        <path
            d="M1115.09 375.894C1115.09 377.158 1114.07 378.193 1112.82 378.193H1093.47C1092.23 378.193 1091.2 377.158 1091.2 375.894V353.509C1091.2 352.244 1092.23 351.21 1093.47 351.21H1112.82C1114.07 351.21 1115.09 352.244 1115.09 353.509V375.894Z"
            fill="#E66407"
        />
        <path
            d="M962.044 263H1135.96C1138.19 263 1140 264.847 1140 267.125V296H958V267.125C958 264.847 959.811 263 962.044 263Z"
            fill="#0F5299"
        />
        <path
            d="M976.664 285.474C980.042 285.474 982.781 282.736 982.781 279.358C982.781 275.98 980.042 273.242 976.664 273.242C973.287 273.242 970.548 275.98 970.548 279.358C970.548 282.736 973.287 285.474 976.664 285.474Z"
            fill="white"
        />
        <path
            d="M996.811 285.474C1000.19 285.474 1002.93 282.736 1002.93 279.358C1002.93 275.98 1000.19 273.242 996.811 273.242C993.434 273.242 990.695 275.98 990.695 279.358C990.695 282.736 993.434 285.474 996.811 285.474Z"
            fill="white"
        />
        <path
            d="M1016.96 285.474C1020.34 285.474 1023.07 282.736 1023.07 279.358C1023.07 275.98 1020.34 273.242 1016.96 273.242C1013.58 273.242 1010.84 275.98 1010.84 279.358C1010.84 282.736 1013.58 285.474 1016.96 285.474Z"
            fill="white"
        />
        <path
            d="M954.316 240.589L948.779 254.344L935 248.756L940.537 235L954.316 240.589Z"
            fill="#FF7946"
        />
        <path d="M1079 443.045H1097.07V425H1079V443.045Z" fill="#597EF7" />
        <path
            d="M992.625 322.249V319.461C992.625 319.074 992.781 318.702 993.058 318.428C993.336 318.154 993.713 318 994.106 318H1008.25C1009.41 318 1010.48 318.601 1011.07 319.581C1011.66 320.561 1011.68 321.775 1011.12 322.774L1001.83 339.536V326.832C1001.84 324.328 999.786 322.295 997.246 322.279L992.625 322.249Z"
            fill="#FF7946"
        />
        <path
            d="M1008.26 318H994.107C993.288 318.001 992.625 318.655 992.625 319.461V319.884H1005.07C1006.23 319.884 1007.3 320.485 1007.89 321.465C1008.48 322.445 1008.5 323.659 1007.94 324.658L1001.83 335.676V339.536L1011.12 322.774C1011.68 321.776 1011.66 320.564 1011.07 319.585C1010.48 318.605 1009.41 318.003 1008.26 318Z"
            fill="#E66407"
        />
        <path
            d="M996.523 336.457L988.502 323.437C988.154 322.87 988.139 322.16 988.462 321.58C988.785 320.999 989.397 320.639 990.061 320.638H1001.32C1001.7 320.638 1002.06 320.788 1002.32 321.055C1002.59 321.322 1002.74 321.683 1002.73 322.059V336.46L996.523 336.457Z"
            fill="#FF7946"
        />
        <path
            d="M1016.74 342.036C1014.62 338.149 1011.74 334.736 1008.26 332.007C1005.94 331.795 1001.98 331.837 999.658 331.625C997.338 331.837 993.373 331.795 991.054 332.007C987.576 334.736 984.691 338.149 982.576 342.036C980.989 344.969 978.694 349.223 979.034 354.983C979.124 356.517 979.35 359.73 981.311 363.107C985.684 370.636 994.636 372.007 996.241 372.246C998.506 372.584 1000.81 372.584 1003.07 372.246C1004.68 372.002 1013.63 370.636 1018 363.107C1019.96 359.732 1020.19 356.509 1020.28 354.983C1020.62 349.223 1018.33 344.969 1016.74 342.036Z"
            fill="#E66407"
        />
        <path
            d="M992.376 328.988H1007.38C1009.26 328.988 1010.21 329.94 1010.21 331.843V331.847C1010.21 333.75 1009.26 334.702 1007.38 334.702H992.376C990.491 334.702 989.549 333.75 989.549 331.847V331.843C989.549 329.94 990.491 328.988 992.376 328.988Z"
            fill="#E83430"
        />
        <path
            d="M1002.83 347.976C1002.43 348.205 1001.93 348.118 1001.63 347.77C1001.51 347.622 1001.37 347.496 1001.21 347.395C1000.4 346.971 999.422 347.047 998.697 347.591C998.34 347.871 998.136 348.298 998.143 348.746C998.143 349.387 998.628 349.903 999.596 350.295L1000.93 350.83C1002.01 351.264 1002.8 351.79 1003.3 352.408C1003.81 353.06 1004.08 353.867 1004.05 354.69C1004.05 355.898 1003.64 356.895 1002.82 357.683C1002.01 358.474 1000.9 358.903 999.755 358.873C998.595 358.873 997.639 358.536 996.884 357.861C996.368 357.384 995.983 356.787 995.762 356.125C995.663 355.852 995.688 355.549 995.83 355.295C995.972 355.04 996.218 354.857 996.506 354.793C997.043 354.683 997.573 355.004 997.716 355.525C997.775 355.755 997.877 355.973 998.016 356.168C998.431 356.736 999.036 357.019 999.833 357.018C1000.42 357.034 1000.99 356.809 1001.4 356.397C1001.81 355.979 1002.04 355.41 1002.02 354.825C1002.02 354.587 1001.98 354.35 1001.91 354.123C1001.84 353.908 1001.72 353.709 1001.57 353.536C1001.4 353.342 1001.2 353.173 1000.98 353.035C1000.71 352.862 1000.42 352.713 1000.12 352.589L998.828 352.061C997.001 351.301 996.087 350.19 996.086 348.728C996.071 347.775 996.493 346.866 997.237 346.253C998.003 345.585 998.957 345.251 1000.1 345.251C1001.23 345.229 1002.3 345.704 1003.04 346.546C1003.23 346.752 1003.32 347.032 1003.28 347.309C1003.24 347.586 1003.08 347.831 1002.83 347.976Z"
            fill="#FFEA9D"
        />
        <path
            d="M999.877 346.756C999.586 346.756 999.306 346.647 999.1 346.451C998.894 346.256 998.778 345.992 998.778 345.716V344.533C998.778 343.958 999.27 343.492 999.877 343.492C1000.48 343.492 1000.98 343.958 1000.98 344.533V345.716C1000.98 345.992 1000.86 346.256 1000.65 346.451C1000.45 346.647 1000.17 346.756 999.877 346.756ZM999.877 361.073C999.586 361.073 999.306 360.963 999.1 360.768C998.894 360.573 998.778 360.308 998.778 360.032V358.85C998.778 358.275 999.27 357.809 999.877 357.809C1000.48 357.809 1000.98 358.275 1000.98 358.85V360.032C1000.98 360.308 1000.86 360.573 1000.65 360.768C1000.45 360.963 1000.17 361.073 999.877 361.073Z"
            fill="#FFEA9D"
        />
        <path
            d="M309.156 291.597H245.641C241.421 291.597 238 295.018 238 299.238V373.259C238 377.479 241.421 380.899 245.641 380.899H309.156C313.376 380.899 316.797 377.479 316.797 373.259V299.238C316.797 295.018 313.376 291.597 309.156 291.597Z"
            fill="#0F5299"
        />
        <path
            d="M306.41 295.975H248.387C246.277 295.975 244.567 297.685 244.567 299.795V370.951C244.567 373.061 246.277 374.771 248.387 374.771H306.41C308.52 374.771 310.231 373.061 310.231 370.951V299.795C310.231 297.685 308.52 295.975 306.41 295.975Z"
            fill="white"
        />
        <path
            d="M268.906 313.944C268.906 318.973 264.829 323.05 259.8 323.05C254.771 323.05 250.695 318.973 250.695 313.944C250.695 308.915 254.771 304.839 259.8 304.839V313.944H268.906Z"
            fill="#0F5299"
        />
        <path
            d="M259.8 304.839C264.829 304.839 268.906 308.915 268.906 313.944H259.8V304.839Z"
            fill="#FFC53D"
        />
        <path
            d="M301.037 307.356H277.398C276.673 307.356 276.085 307.944 276.085 308.67C276.085 309.395 276.673 309.983 277.398 309.983H301.037C301.763 309.983 302.35 309.395 302.35 308.67C302.35 307.944 301.763 307.356 301.037 307.356Z"
            fill="#ADC6FF"
        />
        <path
            d="M301.476 312.609H277.837C277.111 312.609 276.523 313.197 276.523 313.923C276.523 314.648 277.111 315.236 277.837 315.236H301.476C302.201 315.236 302.789 314.648 302.789 313.923C302.789 313.197 302.201 312.609 301.476 312.609Z"
            fill="#ADC6FF"
        />
        <path
            d="M293.486 317.862H278.602C277.877 317.862 277.289 318.45 277.289 319.176C277.289 319.901 277.877 320.489 278.602 320.489H293.486C294.211 320.489 294.799 319.901 294.799 319.176C294.799 318.45 294.211 317.862 293.486 317.862Z"
            fill="#ADC6FF"
        />
        <path
            d="M288.286 359.229H288.945C291.03 359.229 292.72 360.92 292.72 363.004V366.946C292.72 369.031 291.03 370.721 288.945 370.721H288.286C286.202 370.721 284.512 369.031 284.512 366.946V363.004C284.512 360.92 286.202 359.229 288.286 359.229Z"
            fill="#4DB1B3"
        />
        <path
            d="M277.123 350.146H277.782C279.867 350.146 281.557 351.837 281.557 353.921V366.836C281.557 368.921 279.867 370.611 277.782 370.611H277.123C275.039 370.611 273.349 368.921 273.349 366.836V353.921C273.349 351.837 275.039 350.146 277.123 350.146Z"
            fill="#0F5299"
        />
        <path
            d="M299.45 340.516H300.108C302.193 340.516 303.883 342.206 303.883 344.29V366.837C303.883 368.922 302.193 370.612 300.108 370.612H299.45C297.365 370.612 295.675 368.922 295.675 366.837V344.29C295.675 342.206 297.365 340.516 299.45 340.516Z"
            fill="#FFC53D"
        />
        <path
            d="M265.851 345.003H266.51C268.595 345.003 270.285 346.693 270.285 348.778V367.165C270.285 369.25 268.595 370.94 266.51 370.94H265.851C263.767 370.94 262.077 369.25 262.077 367.165V348.778C262.077 346.693 263.767 345.003 265.851 345.003Z"
            fill="#E66407"
        />
        <path
            d="M254.688 351.897H255.347C257.432 351.897 259.122 353.587 259.122 355.672V367.275C259.122 369.359 257.432 371.049 255.347 371.049H254.688C252.604 371.049 250.914 369.359 250.914 367.275V355.672C250.914 353.587 252.604 351.897 254.688 351.897Z"
            fill="#ADC6FF"
        />
        <path
            d="M250.914 341.939H255.018L264.353 333.239L277.836 337.452L287.954 348.396L299.778 329.135H303.882"
            stroke="#0195D6"
            stroke-width="8"
            stroke-linecap="round"
            stroke-linejoin="round"
        />
        <path
            d="M277.399 283C280.768 283 283.499 285.744 283.499 289.129C283.499 289.328 283.49 289.526 283.471 289.72L294.103 291.523C294.522 291.594 294.829 291.959 294.829 292.386V297.884C294.829 298.367 294.439 298.759 293.958 298.759H260.839C260.358 298.759 259.968 298.367 259.968 297.884V292.386C259.968 291.959 260.275 291.594 260.694 291.523L271.326 289.72C271.307 289.526 271.298 289.328 271.298 289.129C271.298 285.744 274.029 283 277.399 283ZM277.399 286.502C275.955 286.502 274.784 287.678 274.784 289.129C274.784 290.579 275.955 291.755 277.399 291.755C278.843 291.755 280.013 290.579 280.013 289.129C280.013 287.678 278.843 286.502 277.399 286.502Z"
            fill="#0F5299"
        />
    </g>
    <defs>
        <clipPath id="clip0_118_255">
            <rect width="1323" height="737" fill="white" />
        </clipPath>
    </defs>
</svg>